<svg width="469" height="298" viewBox="0 0 469 298" fill="none" xmlns="http://www.w3.org/2000/svg">
<g opacity="0.1">
<path d="M104 232C128.588 196.88 192.421 127.539 251.044 131.135C309.668 134.73 357.324 178.238 373.824 199.543C375.441 201.041 379.356 203.139 382.074 199.543C385.471 195.049 391.779 170.582 406.824 169.583C421.868 168.585 433.029 185.562 434 196.048" stroke="#3B75AF" stroke-width="4" stroke-linecap="round" stroke-dasharray="0.5 8"/>
<circle cx="147" cy="291" r="4" fill="#EF8636"/>
<circle cx="253" cy="291" r="4" fill="#3B75AF"/>
<path d="M161.121 286.469V295H159.99V286.469H161.121ZM164.695 290.307V291.232H160.875V290.307H164.695ZM165.275 286.469V287.395H160.875V286.469H165.275ZM167.637 288.66V295H166.547V288.66H167.637ZM166.465 286.979C166.465 286.803 166.518 286.654 166.623 286.533C166.732 286.412 166.893 286.352 167.104 286.352C167.311 286.352 167.469 286.412 167.578 286.533C167.691 286.654 167.748 286.803 167.748 286.979C167.748 287.146 167.691 287.291 167.578 287.412C167.469 287.529 167.311 287.588 167.104 287.588C166.893 287.588 166.732 287.529 166.623 287.412C166.518 287.291 166.465 287.146 166.465 286.979ZM172.031 288.66V289.492H168.604V288.66H172.031ZM169.764 287.119H170.848V293.43C170.848 293.645 170.881 293.807 170.947 293.916C171.014 294.025 171.1 294.098 171.205 294.133C171.311 294.168 171.424 294.186 171.545 294.186C171.635 294.186 171.729 294.178 171.826 294.162C171.928 294.143 172.004 294.127 172.055 294.115L172.061 295C171.975 295.027 171.861 295.053 171.721 295.076C171.584 295.104 171.418 295.117 171.223 295.117C170.957 295.117 170.713 295.064 170.49 294.959C170.268 294.854 170.09 294.678 169.957 294.432C169.828 294.182 169.764 293.846 169.764 293.424V287.119ZM175.957 288.66V289.492H172.529V288.66H175.957ZM173.689 287.119H174.773V293.43C174.773 293.645 174.807 293.807 174.873 293.916C174.939 294.025 175.025 294.098 175.131 294.133C175.236 294.168 175.35 294.186 175.471 294.186C175.561 294.186 175.654 294.178 175.752 294.162C175.854 294.143 175.93 294.127 175.98 294.115L175.986 295C175.9 295.027 175.787 295.053 175.646 295.076C175.51 295.104 175.344 295.117 175.148 295.117C174.883 295.117 174.639 295.064 174.416 294.959C174.193 294.854 174.016 294.678 173.883 294.432C173.754 294.182 173.689 293.846 173.689 293.424V287.119ZM179.859 295.117C179.418 295.117 179.018 295.043 178.658 294.895C178.303 294.742 177.996 294.529 177.738 294.256C177.484 293.982 177.289 293.658 177.152 293.283C177.016 292.908 176.947 292.498 176.947 292.053V291.807C176.947 291.291 177.023 290.832 177.176 290.43C177.328 290.023 177.535 289.68 177.797 289.398C178.059 289.117 178.355 288.904 178.688 288.76C179.02 288.615 179.363 288.543 179.719 288.543C180.172 288.543 180.562 288.621 180.891 288.777C181.223 288.934 181.494 289.152 181.705 289.434C181.916 289.711 182.072 290.039 182.174 290.418C182.275 290.793 182.326 291.203 182.326 291.648V292.135H177.592V291.25H181.242V291.168C181.227 290.887 181.168 290.613 181.066 290.348C180.969 290.082 180.812 289.863 180.598 289.691C180.383 289.52 180.09 289.434 179.719 289.434C179.473 289.434 179.246 289.486 179.039 289.592C178.832 289.693 178.654 289.846 178.506 290.049C178.357 290.252 178.242 290.5 178.16 290.793C178.078 291.086 178.037 291.424 178.037 291.807V292.053C178.037 292.354 178.078 292.637 178.16 292.902C178.246 293.164 178.369 293.395 178.529 293.594C178.693 293.793 178.891 293.949 179.121 294.062C179.355 294.176 179.621 294.232 179.918 294.232C180.301 294.232 180.625 294.154 180.891 293.998C181.156 293.842 181.389 293.633 181.588 293.371L182.244 293.893C182.107 294.1 181.934 294.297 181.723 294.484C181.512 294.672 181.252 294.824 180.943 294.941C180.639 295.059 180.277 295.117 179.859 295.117ZM187.588 293.77V286H188.678V295H187.682L187.588 293.77ZM183.322 291.9V291.777C183.322 291.293 183.381 290.854 183.498 290.459C183.619 290.061 183.789 289.719 184.008 289.434C184.23 289.148 184.494 288.93 184.799 288.777C185.107 288.621 185.451 288.543 185.83 288.543C186.229 288.543 186.576 288.613 186.873 288.754C187.174 288.891 187.428 289.092 187.635 289.357C187.846 289.619 188.012 289.936 188.133 290.307C188.254 290.678 188.338 291.098 188.385 291.566V292.105C188.342 292.57 188.258 292.988 188.133 293.359C188.012 293.73 187.846 294.047 187.635 294.309C187.428 294.57 187.174 294.771 186.873 294.912C186.572 295.049 186.221 295.117 185.818 295.117C185.447 295.117 185.107 295.037 184.799 294.877C184.494 294.717 184.23 294.492 184.008 294.203C183.789 293.914 183.619 293.574 183.498 293.184C183.381 292.789 183.322 292.361 183.322 291.9ZM184.412 291.777V291.9C184.412 292.217 184.443 292.514 184.506 292.791C184.572 293.068 184.674 293.312 184.811 293.523C184.947 293.734 185.121 293.9 185.332 294.021C185.543 294.139 185.795 294.197 186.088 294.197C186.447 294.197 186.742 294.121 186.973 293.969C187.207 293.816 187.395 293.615 187.535 293.365C187.676 293.115 187.785 292.844 187.863 292.551V291.139C187.816 290.924 187.748 290.717 187.658 290.518C187.572 290.314 187.459 290.135 187.318 289.979C187.182 289.818 187.012 289.691 186.809 289.598C186.609 289.504 186.373 289.457 186.1 289.457C185.803 289.457 185.547 289.52 185.332 289.645C185.121 289.766 184.947 289.934 184.811 290.148C184.674 290.359 184.572 290.605 184.506 290.887C184.443 291.164 184.412 291.461 184.412 291.777ZM197.033 293.318C197.033 293.162 196.998 293.018 196.928 292.885C196.861 292.748 196.723 292.625 196.512 292.516C196.305 292.402 195.992 292.305 195.574 292.223C195.223 292.148 194.904 292.061 194.619 291.959C194.338 291.857 194.098 291.734 193.898 291.59C193.703 291.445 193.553 291.275 193.447 291.08C193.342 290.885 193.289 290.656 193.289 290.395C193.289 290.145 193.344 289.908 193.453 289.686C193.566 289.463 193.725 289.266 193.928 289.094C194.135 288.922 194.383 288.787 194.672 288.689C194.961 288.592 195.283 288.543 195.639 288.543C196.146 288.543 196.58 288.633 196.939 288.812C197.299 288.992 197.574 289.232 197.766 289.533C197.957 289.83 198.053 290.16 198.053 290.523H196.969C196.969 290.348 196.916 290.178 196.811 290.014C196.709 289.846 196.559 289.707 196.359 289.598C196.164 289.488 195.924 289.434 195.639 289.434C195.338 289.434 195.094 289.48 194.906 289.574C194.723 289.664 194.588 289.779 194.502 289.92C194.42 290.061 194.379 290.209 194.379 290.365C194.379 290.482 194.398 290.588 194.438 290.682C194.48 290.771 194.555 290.855 194.66 290.934C194.766 291.008 194.914 291.078 195.105 291.145C195.297 291.211 195.541 291.277 195.838 291.344C196.357 291.461 196.785 291.602 197.121 291.766C197.457 291.93 197.707 292.131 197.871 292.369C198.035 292.607 198.117 292.896 198.117 293.236C198.117 293.514 198.059 293.768 197.941 293.998C197.828 294.229 197.662 294.428 197.443 294.596C197.229 294.76 196.971 294.889 196.67 294.982C196.373 295.072 196.039 295.117 195.668 295.117C195.109 295.117 194.637 295.018 194.25 294.818C193.863 294.619 193.57 294.361 193.371 294.045C193.172 293.729 193.072 293.395 193.072 293.043H194.162C194.178 293.34 194.264 293.576 194.42 293.752C194.576 293.924 194.768 294.047 194.994 294.121C195.221 294.191 195.445 294.227 195.668 294.227C195.965 294.227 196.213 294.188 196.412 294.109C196.615 294.031 196.77 293.924 196.875 293.787C196.98 293.65 197.033 293.494 197.033 293.318ZM203.42 293.535V288.66H204.51V295H203.473L203.42 293.535ZM203.625 292.199L204.076 292.188C204.076 292.609 204.031 293 203.941 293.359C203.855 293.715 203.715 294.023 203.52 294.285C203.324 294.547 203.068 294.752 202.752 294.9C202.436 295.045 202.051 295.117 201.598 295.117C201.289 295.117 201.006 295.072 200.748 294.982C200.494 294.893 200.275 294.754 200.092 294.566C199.908 294.379 199.766 294.135 199.664 293.834C199.566 293.533 199.518 293.172 199.518 292.75V288.66H200.602V292.762C200.602 293.047 200.633 293.283 200.695 293.471C200.762 293.654 200.85 293.801 200.959 293.91C201.072 294.016 201.197 294.09 201.334 294.133C201.475 294.176 201.619 294.197 201.768 294.197C202.229 294.197 202.594 294.109 202.863 293.934C203.133 293.754 203.326 293.514 203.443 293.213C203.564 292.908 203.625 292.57 203.625 292.199ZM207.246 289.656V295H206.162V288.66H207.217L207.246 289.656ZM209.227 288.625L209.221 289.633C209.131 289.613 209.045 289.602 208.963 289.598C208.885 289.59 208.795 289.586 208.693 289.586C208.443 289.586 208.223 289.625 208.031 289.703C207.84 289.781 207.678 289.891 207.545 290.031C207.412 290.172 207.307 290.34 207.229 290.535C207.154 290.727 207.105 290.938 207.082 291.168L206.777 291.344C206.777 290.961 206.814 290.602 206.889 290.266C206.967 289.93 207.086 289.633 207.246 289.375C207.406 289.113 207.609 288.91 207.855 288.766C208.105 288.617 208.402 288.543 208.746 288.543C208.824 288.543 208.914 288.553 209.016 288.572C209.117 288.588 209.188 288.605 209.227 288.625ZM211.939 295H210.855V287.992C210.855 287.535 210.938 287.15 211.102 286.838C211.27 286.521 211.51 286.283 211.822 286.123C212.135 285.959 212.506 285.877 212.936 285.877C213.061 285.877 213.186 285.885 213.311 285.9C213.439 285.916 213.564 285.939 213.686 285.971L213.627 286.855C213.545 286.836 213.451 286.822 213.346 286.814C213.244 286.807 213.143 286.803 213.041 286.803C212.811 286.803 212.611 286.85 212.443 286.943C212.279 287.033 212.154 287.166 212.068 287.342C211.982 287.518 211.939 287.734 211.939 287.992V295ZM213.287 288.66V289.492H209.854V288.66H213.287ZM218.232 293.916V290.652C218.232 290.402 218.182 290.186 218.08 290.002C217.982 289.814 217.834 289.67 217.635 289.568C217.436 289.467 217.189 289.416 216.896 289.416C216.623 289.416 216.383 289.463 216.176 289.557C215.973 289.65 215.812 289.773 215.695 289.926C215.582 290.078 215.525 290.242 215.525 290.418H214.441C214.441 290.191 214.5 289.967 214.617 289.744C214.734 289.521 214.902 289.32 215.121 289.141C215.344 288.957 215.609 288.812 215.918 288.707C216.23 288.598 216.578 288.543 216.961 288.543C217.422 288.543 217.828 288.621 218.18 288.777C218.535 288.934 218.812 289.17 219.012 289.486C219.215 289.799 219.316 290.191 219.316 290.664V293.617C219.316 293.828 219.334 294.053 219.369 294.291C219.408 294.529 219.465 294.734 219.539 294.906V295H218.408C218.354 294.875 218.311 294.709 218.279 294.502C218.248 294.291 218.232 294.096 218.232 293.916ZM218.42 291.156L218.432 291.918H217.336C217.027 291.918 216.752 291.943 216.51 291.994C216.268 292.041 216.064 292.113 215.9 292.211C215.736 292.309 215.611 292.432 215.525 292.58C215.439 292.725 215.396 292.895 215.396 293.09C215.396 293.289 215.441 293.471 215.531 293.635C215.621 293.799 215.756 293.93 215.936 294.027C216.119 294.121 216.344 294.168 216.609 294.168C216.941 294.168 217.234 294.098 217.488 293.957C217.742 293.816 217.943 293.645 218.092 293.441C218.244 293.238 218.326 293.041 218.338 292.85L218.801 293.371C218.773 293.535 218.699 293.717 218.578 293.916C218.457 294.115 218.295 294.307 218.092 294.49C217.893 294.67 217.654 294.82 217.377 294.941C217.104 295.059 216.795 295.117 216.451 295.117C216.021 295.117 215.645 295.033 215.32 294.865C215 294.697 214.75 294.473 214.57 294.191C214.395 293.906 214.307 293.588 214.307 293.236C214.307 292.896 214.373 292.598 214.506 292.34C214.639 292.078 214.83 291.861 215.08 291.689C215.33 291.514 215.631 291.381 215.982 291.291C216.334 291.201 216.727 291.156 217.16 291.156H218.42ZM223.559 294.227C223.816 294.227 224.055 294.174 224.273 294.068C224.492 293.963 224.672 293.818 224.812 293.635C224.953 293.447 225.033 293.234 225.053 292.996H226.084C226.064 293.371 225.938 293.721 225.703 294.045C225.473 294.365 225.17 294.625 224.795 294.824C224.42 295.02 224.008 295.117 223.559 295.117C223.082 295.117 222.666 295.033 222.311 294.865C221.959 294.697 221.666 294.467 221.432 294.174C221.201 293.881 221.027 293.545 220.91 293.166C220.797 292.783 220.74 292.379 220.74 291.953V291.707C220.74 291.281 220.797 290.879 220.91 290.5C221.027 290.117 221.201 289.779 221.432 289.486C221.666 289.193 221.959 288.963 222.311 288.795C222.666 288.627 223.082 288.543 223.559 288.543C224.055 288.543 224.488 288.645 224.859 288.848C225.23 289.047 225.521 289.32 225.732 289.668C225.947 290.012 226.064 290.402 226.084 290.84H225.053C225.033 290.578 224.959 290.342 224.83 290.131C224.705 289.92 224.533 289.752 224.314 289.627C224.1 289.498 223.848 289.434 223.559 289.434C223.227 289.434 222.947 289.5 222.721 289.633C222.498 289.762 222.32 289.938 222.188 290.16C222.059 290.379 221.965 290.623 221.906 290.893C221.852 291.158 221.824 291.43 221.824 291.707V291.953C221.824 292.23 221.852 292.504 221.906 292.773C221.961 293.043 222.053 293.287 222.182 293.506C222.314 293.725 222.492 293.9 222.715 294.033C222.941 294.162 223.223 294.227 223.559 294.227ZM229.934 295.117C229.492 295.117 229.092 295.043 228.732 294.895C228.377 294.742 228.07 294.529 227.812 294.256C227.559 293.982 227.363 293.658 227.227 293.283C227.09 292.908 227.021 292.498 227.021 292.053V291.807C227.021 291.291 227.098 290.832 227.25 290.43C227.402 290.023 227.609 289.68 227.871 289.398C228.133 289.117 228.43 288.904 228.762 288.76C229.094 288.615 229.438 288.543 229.793 288.543C230.246 288.543 230.637 288.621 230.965 288.777C231.297 288.934 231.568 289.152 231.779 289.434C231.99 289.711 232.146 290.039 232.248 290.418C232.35 290.793 232.4 291.203 232.4 291.648V292.135H227.666V291.25H231.316V291.168C231.301 290.887 231.242 290.613 231.141 290.348C231.043 290.082 230.887 289.863 230.672 289.691C230.457 289.52 230.164 289.434 229.793 289.434C229.547 289.434 229.32 289.486 229.113 289.592C228.906 289.693 228.729 289.846 228.58 290.049C228.432 290.252 228.316 290.5 228.234 290.793C228.152 291.086 228.111 291.424 228.111 291.807V292.053C228.111 292.354 228.152 292.637 228.234 292.902C228.32 293.164 228.443 293.395 228.604 293.594C228.768 293.793 228.965 293.949 229.195 294.062C229.43 294.176 229.695 294.232 229.992 294.232C230.375 294.232 230.699 294.154 230.965 293.998C231.23 293.842 231.463 293.633 231.662 293.371L232.318 293.893C232.182 294.1 232.008 294.297 231.797 294.484C231.586 294.672 231.326 294.824 231.018 294.941C230.713 295.059 230.352 295.117 229.934 295.117Z" fill="#A3A3A3"/>
<path d="M269.137 291.654H266.857V290.734H269.137C269.578 290.734 269.936 290.664 270.209 290.523C270.482 290.383 270.682 290.188 270.807 289.938C270.936 289.688 271 289.402 271 289.082C271 288.789 270.936 288.514 270.807 288.256C270.682 287.998 270.482 287.791 270.209 287.635C269.936 287.475 269.578 287.395 269.137 287.395H267.121V295H265.99V286.469H269.137C269.781 286.469 270.326 286.58 270.771 286.803C271.217 287.025 271.555 287.334 271.785 287.729C272.016 288.119 272.131 288.566 272.131 289.07C272.131 289.617 272.016 290.084 271.785 290.471C271.555 290.857 271.217 291.152 270.771 291.355C270.326 291.555 269.781 291.654 269.137 291.654ZM273.027 291.9V291.766C273.027 291.309 273.094 290.885 273.227 290.494C273.359 290.1 273.551 289.758 273.801 289.469C274.051 289.176 274.354 288.949 274.709 288.789C275.064 288.625 275.463 288.543 275.904 288.543C276.35 288.543 276.75 288.625 277.105 288.789C277.465 288.949 277.77 289.176 278.02 289.469C278.273 289.758 278.467 290.1 278.6 290.494C278.732 290.885 278.799 291.309 278.799 291.766V291.9C278.799 292.357 278.732 292.781 278.6 293.172C278.467 293.562 278.273 293.904 278.02 294.197C277.77 294.486 277.467 294.713 277.111 294.877C276.76 295.037 276.361 295.117 275.916 295.117C275.471 295.117 275.07 295.037 274.715 294.877C274.359 294.713 274.055 294.486 273.801 294.197C273.551 293.904 273.359 293.562 273.227 293.172C273.094 292.781 273.027 292.357 273.027 291.9ZM274.111 291.766V291.9C274.111 292.217 274.148 292.516 274.223 292.797C274.297 293.074 274.408 293.32 274.557 293.535C274.709 293.75 274.898 293.92 275.125 294.045C275.352 294.166 275.615 294.227 275.916 294.227C276.213 294.227 276.473 294.166 276.695 294.045C276.922 293.92 277.109 293.75 277.258 293.535C277.406 293.32 277.518 293.074 277.592 292.797C277.67 292.516 277.709 292.217 277.709 291.9V291.766C277.709 291.453 277.67 291.158 277.592 290.881C277.518 290.6 277.404 290.352 277.252 290.137C277.104 289.918 276.916 289.746 276.689 289.621C276.467 289.496 276.205 289.434 275.904 289.434C275.607 289.434 275.346 289.496 275.119 289.621C274.896 289.746 274.709 289.918 274.557 290.137C274.408 290.352 274.297 290.6 274.223 290.881C274.148 291.158 274.111 291.453 274.111 291.766ZM281.336 288.66V295H280.246V288.66H281.336ZM280.164 286.979C280.164 286.803 280.217 286.654 280.322 286.533C280.432 286.412 280.592 286.352 280.803 286.352C281.01 286.352 281.168 286.412 281.277 286.533C281.391 286.654 281.447 286.803 281.447 286.979C281.447 287.146 281.391 287.291 281.277 287.412C281.168 287.529 281.01 287.588 280.803 287.588C280.592 287.588 280.432 287.529 280.322 287.412C280.217 287.291 280.164 287.146 280.164 286.979ZM284.16 290.014V295H283.076V288.66H284.102L284.16 290.014ZM283.902 291.59L283.451 291.572C283.455 291.139 283.52 290.738 283.645 290.371C283.77 290 283.945 289.678 284.172 289.404C284.398 289.131 284.668 288.92 284.98 288.771C285.297 288.619 285.646 288.543 286.029 288.543C286.342 288.543 286.623 288.586 286.873 288.672C287.123 288.754 287.336 288.887 287.512 289.07C287.691 289.254 287.828 289.492 287.922 289.785C288.016 290.074 288.062 290.428 288.062 290.846V295H286.973V290.834C286.973 290.502 286.924 290.236 286.826 290.037C286.729 289.834 286.586 289.688 286.398 289.598C286.211 289.504 285.98 289.457 285.707 289.457C285.438 289.457 285.191 289.514 284.969 289.627C284.75 289.74 284.561 289.896 284.4 290.096C284.244 290.295 284.121 290.523 284.031 290.781C283.945 291.035 283.902 291.305 283.902 291.59ZM292.363 288.66V289.492H288.936V288.66H292.363ZM290.096 287.119H291.18V293.43C291.18 293.645 291.213 293.807 291.279 293.916C291.346 294.025 291.432 294.098 291.537 294.133C291.643 294.168 291.756 294.186 291.877 294.186C291.967 294.186 292.061 294.178 292.158 294.162C292.26 294.143 292.336 294.127 292.387 294.115L292.393 295C292.307 295.027 292.193 295.053 292.053 295.076C291.916 295.104 291.75 295.117 291.555 295.117C291.289 295.117 291.045 295.064 290.822 294.959C290.6 294.854 290.422 294.678 290.289 294.432C290.16 294.182 290.096 293.846 290.096 293.424V287.119ZM299.148 294.227C299.406 294.227 299.645 294.174 299.863 294.068C300.082 293.963 300.262 293.818 300.402 293.635C300.543 293.447 300.623 293.234 300.643 292.996H301.674C301.654 293.371 301.527 293.721 301.293 294.045C301.062 294.365 300.76 294.625 300.385 294.824C300.01 295.02 299.598 295.117 299.148 295.117C298.672 295.117 298.256 295.033 297.9 294.865C297.549 294.697 297.256 294.467 297.021 294.174C296.791 293.881 296.617 293.545 296.5 293.166C296.387 292.783 296.33 292.379 296.33 291.953V291.707C296.33 291.281 296.387 290.879 296.5 290.5C296.617 290.117 296.791 289.779 297.021 289.486C297.256 289.193 297.549 288.963 297.9 288.795C298.256 288.627 298.672 288.543 299.148 288.543C299.645 288.543 300.078 288.645 300.449 288.848C300.82 289.047 301.111 289.32 301.322 289.668C301.537 290.012 301.654 290.402 301.674 290.84H300.643C300.623 290.578 300.549 290.342 300.42 290.131C300.295 289.92 300.123 289.752 299.904 289.627C299.689 289.498 299.438 289.434 299.148 289.434C298.816 289.434 298.537 289.5 298.311 289.633C298.088 289.762 297.91 289.938 297.777 290.16C297.648 290.379 297.555 290.623 297.496 290.893C297.441 291.158 297.414 291.43 297.414 291.707V291.953C297.414 292.23 297.441 292.504 297.496 292.773C297.551 293.043 297.643 293.287 297.771 293.506C297.904 293.725 298.082 293.9 298.305 294.033C298.531 294.162 298.812 294.227 299.148 294.227ZM304.07 286V295H302.98V286H304.07ZM305.523 291.9V291.766C305.523 291.309 305.59 290.885 305.723 290.494C305.855 290.1 306.047 289.758 306.297 289.469C306.547 289.176 306.85 288.949 307.205 288.789C307.561 288.625 307.959 288.543 308.4 288.543C308.846 288.543 309.246 288.625 309.602 288.789C309.961 288.949 310.266 289.176 310.516 289.469C310.77 289.758 310.963 290.1 311.096 290.494C311.229 290.885 311.295 291.309 311.295 291.766V291.9C311.295 292.357 311.229 292.781 311.096 293.172C310.963 293.562 310.77 293.904 310.516 294.197C310.266 294.486 309.963 294.713 309.607 294.877C309.256 295.037 308.857 295.117 308.412 295.117C307.967 295.117 307.566 295.037 307.211 294.877C306.855 294.713 306.551 294.486 306.297 294.197C306.047 293.904 305.855 293.562 305.723 293.172C305.59 292.781 305.523 292.357 305.523 291.9ZM306.607 291.766V291.9C306.607 292.217 306.645 292.516 306.719 292.797C306.793 293.074 306.904 293.32 307.053 293.535C307.205 293.75 307.395 293.92 307.621 294.045C307.848 294.166 308.111 294.227 308.412 294.227C308.709 294.227 308.969 294.166 309.191 294.045C309.418 293.92 309.605 293.75 309.754 293.535C309.902 293.32 310.014 293.074 310.088 292.797C310.166 292.516 310.205 292.217 310.205 291.9V291.766C310.205 291.453 310.166 291.158 310.088 290.881C310.014 290.6 309.9 290.352 309.748 290.137C309.6 289.918 309.412 289.746 309.186 289.621C308.963 289.496 308.701 289.434 308.4 289.434C308.104 289.434 307.842 289.496 307.615 289.621C307.393 289.746 307.205 289.918 307.053 290.137C306.904 290.352 306.793 290.6 306.719 290.881C306.645 291.158 306.607 291.453 306.607 291.766ZM316.533 293.535V288.66H317.623V295H316.586L316.533 293.535ZM316.738 292.199L317.189 292.188C317.189 292.609 317.145 293 317.055 293.359C316.969 293.715 316.828 294.023 316.633 294.285C316.438 294.547 316.182 294.752 315.865 294.9C315.549 295.045 315.164 295.117 314.711 295.117C314.402 295.117 314.119 295.072 313.861 294.982C313.607 294.893 313.389 294.754 313.205 294.566C313.021 294.379 312.879 294.135 312.777 293.834C312.68 293.533 312.631 293.172 312.631 292.75V288.66H313.715V292.762C313.715 293.047 313.746 293.283 313.809 293.471C313.875 293.654 313.963 293.801 314.072 293.91C314.186 294.016 314.311 294.09 314.447 294.133C314.588 294.176 314.732 294.197 314.881 294.197C315.342 294.197 315.707 294.109 315.977 293.934C316.246 293.754 316.439 293.514 316.557 293.213C316.678 292.908 316.738 292.57 316.738 292.199ZM323.271 293.77V286H324.361V295H323.365L323.271 293.77ZM319.006 291.9V291.777C319.006 291.293 319.064 290.854 319.182 290.459C319.303 290.061 319.473 289.719 319.691 289.434C319.914 289.148 320.178 288.93 320.482 288.777C320.791 288.621 321.135 288.543 321.514 288.543C321.912 288.543 322.26 288.613 322.557 288.754C322.857 288.891 323.111 289.092 323.318 289.357C323.529 289.619 323.695 289.936 323.816 290.307C323.938 290.678 324.021 291.098 324.068 291.566V292.105C324.025 292.57 323.941 292.988 323.816 293.359C323.695 293.73 323.529 294.047 323.318 294.309C323.111 294.57 322.857 294.771 322.557 294.912C322.256 295.049 321.904 295.117 321.502 295.117C321.131 295.117 320.791 295.037 320.482 294.877C320.178 294.717 319.914 294.492 319.691 294.203C319.473 293.914 319.303 293.574 319.182 293.184C319.064 292.789 319.006 292.361 319.006 291.9ZM320.096 291.777V291.9C320.096 292.217 320.127 292.514 320.189 292.791C320.256 293.068 320.357 293.312 320.494 293.523C320.631 293.734 320.805 293.9 321.016 294.021C321.227 294.139 321.479 294.197 321.771 294.197C322.131 294.197 322.426 294.121 322.656 293.969C322.891 293.816 323.078 293.615 323.219 293.365C323.359 293.115 323.469 292.844 323.547 292.551V291.139C323.5 290.924 323.432 290.717 323.342 290.518C323.256 290.314 323.143 290.135 323.002 289.979C322.865 289.818 322.695 289.691 322.492 289.598C322.293 289.504 322.057 289.457 321.783 289.457C321.486 289.457 321.23 289.52 321.016 289.645C320.805 289.766 320.631 289.934 320.494 290.148C320.357 290.359 320.256 290.605 320.189 290.887C320.127 291.164 320.096 291.461 320.096 291.777Z" fill="#A3A3A3"/>
<path d="M71.0645 261.055V262.355C71.0645 263.055 71.002 263.645 70.877 264.125C70.752 264.605 70.5723 264.992 70.3379 265.285C70.1035 265.578 69.8203 265.791 69.4883 265.924C69.1602 266.053 68.7891 266.117 68.375 266.117C68.0469 266.117 67.7441 266.076 67.4668 265.994C67.1895 265.912 66.9395 265.781 66.7168 265.602C66.498 265.418 66.3105 265.18 66.1543 264.887C65.998 264.594 65.8789 264.238 65.7969 263.82C65.7148 263.402 65.6738 262.914 65.6738 262.355V261.055C65.6738 260.355 65.7363 259.77 65.8613 259.297C65.9902 258.824 66.1719 258.445 66.4062 258.16C66.6406 257.871 66.9219 257.664 67.25 257.539C67.582 257.414 67.9531 257.352 68.3633 257.352C68.6953 257.352 69 257.393 69.2773 257.475C69.5586 257.553 69.8086 257.68 70.0273 257.855C70.2461 258.027 70.4316 258.258 70.584 258.547C70.7402 258.832 70.8594 259.182 70.9414 259.596C71.0234 260.01 71.0645 260.496 71.0645 261.055ZM69.9746 262.531V260.873C69.9746 260.49 69.9512 260.154 69.9043 259.865C69.8613 259.572 69.7969 259.322 69.7109 259.115C69.625 258.908 69.5156 258.74 69.3828 258.611C69.2539 258.482 69.1035 258.389 68.9316 258.33C68.7637 258.268 68.5742 258.236 68.3633 258.236C68.1055 258.236 67.877 258.285 67.6777 258.383C67.4785 258.477 67.3105 258.627 67.1738 258.834C67.041 259.041 66.9395 259.312 66.8691 259.648C66.7988 259.984 66.7637 260.393 66.7637 260.873V262.531C66.7637 262.914 66.7852 263.252 66.8281 263.545C66.875 263.838 66.9434 264.092 67.0332 264.307C67.123 264.518 67.2324 264.691 67.3613 264.828C67.4902 264.965 67.6387 265.066 67.8066 265.133C67.9785 265.195 68.168 265.227 68.375 265.227C68.6406 265.227 68.873 265.176 69.0723 265.074C69.2715 264.973 69.4375 264.814 69.5703 264.6C69.707 264.381 69.8086 264.102 69.875 263.762C69.9414 263.418 69.9746 263.008 69.9746 262.531Z" fill="#50739B"/>
<path d="M156.271 257.422V266H155.188V258.775L153.002 259.572V258.594L156.102 257.422H156.271Z" fill="#50739B"/>
<path d="M245.299 265.109V266H239.715V265.221L242.51 262.109C242.854 261.727 243.119 261.402 243.307 261.137C243.498 260.867 243.631 260.627 243.705 260.416C243.783 260.201 243.822 259.982 243.822 259.76C243.822 259.479 243.764 259.225 243.646 258.998C243.533 258.768 243.365 258.584 243.143 258.447C242.92 258.311 242.65 258.242 242.334 258.242C241.955 258.242 241.639 258.316 241.385 258.465C241.135 258.609 240.947 258.812 240.822 259.074C240.697 259.336 240.635 259.637 240.635 259.977H239.551C239.551 259.496 239.656 259.057 239.867 258.658C240.078 258.26 240.391 257.943 240.805 257.709C241.219 257.471 241.729 257.352 242.334 257.352C242.873 257.352 243.334 257.447 243.717 257.639C244.1 257.826 244.393 258.092 244.596 258.436C244.803 258.775 244.906 259.174 244.906 259.631C244.906 259.881 244.863 260.135 244.777 260.393C244.695 260.646 244.58 260.9 244.432 261.154C244.287 261.408 244.117 261.658 243.922 261.904C243.73 262.15 243.525 262.393 243.307 262.631L241.021 265.109H245.299Z" fill="#50739B"/>
<path d="M328.291 261.201H329.064C329.443 261.201 329.756 261.139 330.002 261.014C330.252 260.885 330.438 260.711 330.559 260.492C330.684 260.27 330.746 260.02 330.746 259.742C330.746 259.414 330.691 259.139 330.582 258.916C330.473 258.693 330.309 258.525 330.09 258.412C329.871 258.299 329.594 258.242 329.258 258.242C328.953 258.242 328.684 258.303 328.449 258.424C328.219 258.541 328.037 258.709 327.904 258.928C327.775 259.146 327.711 259.404 327.711 259.701H326.627C326.627 259.268 326.736 258.873 326.955 258.518C327.174 258.162 327.48 257.879 327.875 257.668C328.273 257.457 328.734 257.352 329.258 257.352C329.773 257.352 330.225 257.443 330.611 257.627C330.998 257.807 331.299 258.076 331.514 258.436C331.729 258.791 331.836 259.234 331.836 259.766C331.836 259.98 331.785 260.211 331.684 260.457C331.586 260.699 331.432 260.926 331.221 261.137C331.014 261.348 330.744 261.521 330.412 261.658C330.08 261.791 329.682 261.857 329.217 261.857H328.291V261.201ZM328.291 262.092V261.441H329.217C329.76 261.441 330.209 261.506 330.564 261.635C330.92 261.764 331.199 261.936 331.402 262.15C331.609 262.365 331.754 262.602 331.836 262.859C331.922 263.113 331.965 263.367 331.965 263.621C331.965 264.02 331.896 264.373 331.76 264.682C331.627 264.99 331.438 265.252 331.191 265.467C330.949 265.682 330.664 265.844 330.336 265.953C330.008 266.062 329.65 266.117 329.264 266.117C328.893 266.117 328.543 266.064 328.215 265.959C327.891 265.854 327.604 265.701 327.354 265.502C327.104 265.299 326.908 265.051 326.768 264.758C326.627 264.461 326.557 264.123 326.557 263.744H327.641C327.641 264.041 327.705 264.301 327.834 264.523C327.967 264.746 328.154 264.92 328.396 265.045C328.643 265.166 328.932 265.227 329.264 265.227C329.596 265.227 329.881 265.17 330.119 265.057C330.361 264.939 330.547 264.764 330.676 264.529C330.809 264.295 330.875 264 330.875 263.645C330.875 263.289 330.801 262.998 330.652 262.771C330.504 262.541 330.293 262.371 330.02 262.262C329.75 262.148 329.432 262.092 329.064 262.092H328.291Z" fill="#50739B"/>
<path d="M419.475 263.129V264.02H413.311V263.381L417.131 257.469H418.016L417.066 259.18L414.541 263.129H419.475ZM418.285 257.469V266H417.201V257.469H418.285Z" fill="#50739B"/>
<path d="M10.0645 92.0547V93.3555C10.0645 94.0547 10.002 94.6445 9.87695 95.125C9.75195 95.6055 9.57227 95.9922 9.33789 96.2852C9.10352 96.5781 8.82031 96.791 8.48828 96.9238C8.16016 97.0527 7.78906 97.1172 7.375 97.1172C7.04688 97.1172 6.74414 97.0762 6.4668 96.9941C6.18945 96.9121 5.93945 96.7812 5.7168 96.6016C5.49805 96.418 5.31055 96.1797 5.1543 95.8867C4.99805 95.5938 4.87891 95.2383 4.79688 94.8203C4.71484 94.4023 4.67383 93.9141 4.67383 93.3555V92.0547C4.67383 91.3555 4.73633 90.7695 4.86133 90.2969C4.99023 89.8242 5.17188 89.4453 5.40625 89.1602C5.64062 88.8711 5.92188 88.6641 6.25 88.5391C6.58203 88.4141 6.95312 88.3516 7.36328 88.3516C7.69531 88.3516 8 88.3926 8.27734 88.4746C8.55859 88.5527 8.80859 88.6797 9.02734 88.8555C9.24609 89.0273 9.43164 89.2578 9.58398 89.5469C9.74023 89.832 9.85938 90.1816 9.94141 90.5957C10.0234 91.0098 10.0645 91.4961 10.0645 92.0547ZM8.97461 93.5312V91.873C8.97461 91.4902 8.95117 91.1543 8.9043 90.8652C8.86133 90.5723 8.79688 90.3223 8.71094 90.1152C8.625 89.9082 8.51562 89.7402 8.38281 89.6113C8.25391 89.4824 8.10352 89.3887 7.93164 89.3301C7.76367 89.2676 7.57422 89.2363 7.36328 89.2363C7.10547 89.2363 6.87695 89.2852 6.67773 89.3828C6.47852 89.4766 6.31055 89.627 6.17383 89.834C6.04102 90.041 5.93945 90.3125 5.86914 90.6484C5.79883 90.9844 5.76367 91.3926 5.76367 91.873V93.5312C5.76367 93.9141 5.78516 94.252 5.82812 94.5449C5.875 94.8379 5.94336 95.0918 6.0332 95.3066C6.12305 95.5176 6.23242 95.6914 6.36133 95.8281C6.49023 95.9648 6.63867 96.0664 6.80664 96.1328C6.97852 96.1953 7.16797 96.2266 7.375 96.2266C7.64062 96.2266 7.87305 96.1758 8.07227 96.0742C8.27148 95.9727 8.4375 95.8145 8.57031 95.5996C8.70703 95.3809 8.80859 95.1016 8.875 94.7617C8.94141 94.418 8.97461 94.0078 8.97461 93.5312ZM11.5938 96.4258C11.5938 96.2422 11.6504 96.0879 11.7637 95.9629C11.8809 95.834 12.0488 95.7695 12.2676 95.7695C12.4863 95.7695 12.6523 95.834 12.7656 95.9629C12.8828 96.0879 12.9414 96.2422 12.9414 96.4258C12.9414 96.6055 12.8828 96.7578 12.7656 96.8828C12.6523 97.0078 12.4863 97.0703 12.2676 97.0703C12.0488 97.0703 11.8809 97.0078 11.7637 96.8828C11.6504 96.7578 11.5938 96.6055 11.5938 96.4258ZM15.9941 92.9395L15.127 92.7168L15.5547 88.4688H19.9316V89.4707H16.4746L16.2168 91.791C16.373 91.7012 16.5703 91.6172 16.8086 91.5391C17.0508 91.4609 17.3281 91.4219 17.6406 91.4219C18.0352 91.4219 18.3887 91.4902 18.7012 91.627C19.0137 91.7598 19.2793 91.9512 19.498 92.2012C19.7207 92.4512 19.8906 92.752 20.0078 93.1035C20.125 93.4551 20.1836 93.8477 20.1836 94.2812C20.1836 94.6914 20.127 95.0684 20.0137 95.4121C19.9043 95.7559 19.7383 96.0566 19.5156 96.3145C19.293 96.5684 19.0117 96.7656 18.6719 96.9062C18.3359 97.0469 17.9395 97.1172 17.4824 97.1172C17.1387 97.1172 16.8125 97.0703 16.5039 96.9766C16.1992 96.8789 15.9258 96.7324 15.6836 96.5371C15.4453 96.3379 15.25 96.0918 15.0977 95.7988C14.9492 95.502 14.8555 95.1543 14.8164 94.7559H15.8477C15.8945 95.0762 15.9883 95.3457 16.1289 95.5645C16.2695 95.7832 16.4531 95.9492 16.6797 96.0625C16.9102 96.1719 17.1777 96.2266 17.4824 96.2266C17.7402 96.2266 17.9688 96.1816 18.168 96.0918C18.3672 96.002 18.5352 95.873 18.6719 95.7051C18.8086 95.5371 18.9121 95.334 18.9824 95.0957C19.0566 94.8574 19.0938 94.5898 19.0938 94.293C19.0938 94.0234 19.0566 93.7734 18.9824 93.543C18.9082 93.3125 18.7969 93.1113 18.6484 92.9395C18.5039 92.7676 18.3262 92.6348 18.1152 92.541C17.9043 92.4434 17.6621 92.3945 17.3887 92.3945C17.0254 92.3945 16.75 92.4434 16.5625 92.541C16.3789 92.6387 16.1895 92.7715 15.9941 92.9395Z" fill="#50739B"/>
<path d="M10.0645 126.055V127.355C10.0645 128.055 10.002 128.645 9.87695 129.125C9.75195 129.605 9.57227 129.992 9.33789 130.285C9.10352 130.578 8.82031 130.791 8.48828 130.924C8.16016 131.053 7.78906 131.117 7.375 131.117C7.04688 131.117 6.74414 131.076 6.4668 130.994C6.18945 130.912 5.93945 130.781 5.7168 130.602C5.49805 130.418 5.31055 130.18 5.1543 129.887C4.99805 129.594 4.87891 129.238 4.79688 128.82C4.71484 128.402 4.67383 127.914 4.67383 127.355V126.055C4.67383 125.355 4.73633 124.77 4.86133 124.297C4.99023 123.824 5.17188 123.445 5.40625 123.16C5.64062 122.871 5.92188 122.664 6.25 122.539C6.58203 122.414 6.95312 122.352 7.36328 122.352C7.69531 122.352 8 122.393 8.27734 122.475C8.55859 122.553 8.80859 122.68 9.02734 122.855C9.24609 123.027 9.43164 123.258 9.58398 123.547C9.74023 123.832 9.85938 124.182 9.94141 124.596C10.0234 125.01 10.0645 125.496 10.0645 126.055ZM8.97461 127.531V125.873C8.97461 125.49 8.95117 125.154 8.9043 124.865C8.86133 124.572 8.79688 124.322 8.71094 124.115C8.625 123.908 8.51562 123.74 8.38281 123.611C8.25391 123.482 8.10352 123.389 7.93164 123.33C7.76367 123.268 7.57422 123.236 7.36328 123.236C7.10547 123.236 6.87695 123.285 6.67773 123.383C6.47852 123.477 6.31055 123.627 6.17383 123.834C6.04102 124.041 5.93945 124.312 5.86914 124.648C5.79883 124.984 5.76367 125.393 5.76367 125.873V127.531C5.76367 127.914 5.78516 128.252 5.82812 128.545C5.875 128.838 5.94336 129.092 6.0332 129.307C6.12305 129.518 6.23242 129.691 6.36133 129.828C6.49023 129.965 6.63867 130.066 6.80664 130.133C6.97852 130.195 7.16797 130.227 7.375 130.227C7.64062 130.227 7.87305 130.176 8.07227 130.074C8.27148 129.973 8.4375 129.814 8.57031 129.6C8.70703 129.381 8.80859 129.102 8.875 128.762C8.94141 128.418 8.97461 128.008 8.97461 127.531ZM11.5938 130.426C11.5938 130.242 11.6504 130.088 11.7637 129.963C11.8809 129.834 12.0488 129.77 12.2676 129.77C12.4863 129.77 12.6523 129.834 12.7656 129.963C12.8828 130.088 12.9414 130.242 12.9414 130.426C12.9414 130.605 12.8828 130.758 12.7656 130.883C12.6523 131.008 12.4863 131.07 12.2676 131.07C12.0488 131.07 11.8809 131.008 11.7637 130.883C11.6504 130.758 11.5938 130.605 11.5938 130.426ZM20.3887 128.129V129.02H14.2246V128.381L18.0449 122.469H18.9297L17.9805 124.18L15.4551 128.129H20.3887ZM19.1992 122.469V131H18.1152V122.469H19.1992Z" fill="#50739B"/>
<path d="M10.0645 160.055V161.355C10.0645 162.055 10.002 162.645 9.87695 163.125C9.75195 163.605 9.57227 163.992 9.33789 164.285C9.10352 164.578 8.82031 164.791 8.48828 164.924C8.16016 165.053 7.78906 165.117 7.375 165.117C7.04688 165.117 6.74414 165.076 6.4668 164.994C6.18945 164.912 5.93945 164.781 5.7168 164.602C5.49805 164.418 5.31055 164.18 5.1543 163.887C4.99805 163.594 4.87891 163.238 4.79688 162.82C4.71484 162.402 4.67383 161.914 4.67383 161.355V160.055C4.67383 159.355 4.73633 158.77 4.86133 158.297C4.99023 157.824 5.17188 157.445 5.40625 157.16C5.64062 156.871 5.92188 156.664 6.25 156.539C6.58203 156.414 6.95312 156.352 7.36328 156.352C7.69531 156.352 8 156.393 8.27734 156.475C8.55859 156.553 8.80859 156.68 9.02734 156.855C9.24609 157.027 9.43164 157.258 9.58398 157.547C9.74023 157.832 9.85938 158.182 9.94141 158.596C10.0234 159.01 10.0645 159.496 10.0645 160.055ZM8.97461 161.531V159.873C8.97461 159.49 8.95117 159.154 8.9043 158.865C8.86133 158.572 8.79688 158.322 8.71094 158.115C8.625 157.908 8.51562 157.74 8.38281 157.611C8.25391 157.482 8.10352 157.389 7.93164 157.33C7.76367 157.268 7.57422 157.236 7.36328 157.236C7.10547 157.236 6.87695 157.285 6.67773 157.383C6.47852 157.477 6.31055 157.627 6.17383 157.834C6.04102 158.041 5.93945 158.312 5.86914 158.648C5.79883 158.984 5.76367 159.393 5.76367 159.873V161.531C5.76367 161.914 5.78516 162.252 5.82812 162.545C5.875 162.838 5.94336 163.092 6.0332 163.307C6.12305 163.518 6.23242 163.691 6.36133 163.828C6.49023 163.965 6.63867 164.066 6.80664 164.133C6.97852 164.195 7.16797 164.227 7.375 164.227C7.64062 164.227 7.87305 164.176 8.07227 164.074C8.27148 163.973 8.4375 163.814 8.57031 163.6C8.70703 163.381 8.80859 163.102 8.875 162.762C8.94141 162.418 8.97461 162.008 8.97461 161.531ZM11.5938 164.426C11.5938 164.242 11.6504 164.088 11.7637 163.963C11.8809 163.834 12.0488 163.77 12.2676 163.77C12.4863 163.77 12.6523 163.834 12.7656 163.963C12.8828 164.088 12.9414 164.242 12.9414 164.426C12.9414 164.605 12.8828 164.758 12.7656 164.883C12.6523 165.008 12.4863 165.07 12.2676 165.07C12.0488 165.07 11.8809 165.008 11.7637 164.883C11.6504 164.758 11.5938 164.605 11.5938 164.426ZM16.2051 160.201H16.9785C17.3574 160.201 17.6699 160.139 17.916 160.014C18.166 159.885 18.3516 159.711 18.4727 159.492C18.5977 159.27 18.6602 159.02 18.6602 158.742C18.6602 158.414 18.6055 158.139 18.4961 157.916C18.3867 157.693 18.2227 157.525 18.0039 157.412C17.7852 157.299 17.5078 157.242 17.1719 157.242C16.8672 157.242 16.5977 157.303 16.3633 157.424C16.1328 157.541 15.9512 157.709 15.8184 157.928C15.6895 158.146 15.625 158.404 15.625 158.701H14.541C14.541 158.268 14.6504 157.873 14.8691 157.518C15.0879 157.162 15.3945 156.879 15.7891 156.668C16.1875 156.457 16.6484 156.352 17.1719 156.352C17.6875 156.352 18.1387 156.443 18.5254 156.627C18.9121 156.807 19.2129 157.076 19.4277 157.436C19.6426 157.791 19.75 158.234 19.75 158.766C19.75 158.98 19.6992 159.211 19.5977 159.457C19.5 159.699 19.3457 159.926 19.1348 160.137C18.9277 160.348 18.6582 160.521 18.3262 160.658C17.9941 160.791 17.5957 160.857 17.1309 160.857H16.2051V160.201ZM16.2051 161.092V160.441H17.1309C17.6738 160.441 18.123 160.506 18.4785 160.635C18.834 160.764 19.1133 160.936 19.3164 161.15C19.5234 161.365 19.668 161.602 19.75 161.859C19.8359 162.113 19.8789 162.367 19.8789 162.621C19.8789 163.02 19.8105 163.373 19.6738 163.682C19.541 163.99 19.3516 164.252 19.1055 164.467C18.8633 164.682 18.5781 164.844 18.25 164.953C17.9219 165.062 17.5645 165.117 17.1777 165.117C16.8066 165.117 16.457 165.064 16.1289 164.959C15.8047 164.854 15.5176 164.701 15.2676 164.502C15.0176 164.299 14.8223 164.051 14.6816 163.758C14.541 163.461 14.4707 163.123 14.4707 162.744H15.5547C15.5547 163.041 15.6191 163.301 15.748 163.523C15.8809 163.746 16.0684 163.92 16.3105 164.045C16.5566 164.166 16.8457 164.227 17.1777 164.227C17.5098 164.227 17.7949 164.17 18.0332 164.057C18.2754 163.939 18.4609 163.764 18.5898 163.529C18.7227 163.295 18.7891 163 18.7891 162.645C18.7891 162.289 18.7148 161.998 18.5664 161.771C18.418 161.541 18.207 161.371 17.9336 161.262C17.6641 161.148 17.3457 161.092 16.9785 161.092H16.2051Z" fill="#50739B"/>
<path d="M10.0645 194.055V195.355C10.0645 196.055 10.002 196.645 9.87695 197.125C9.75195 197.605 9.57227 197.992 9.33789 198.285C9.10352 198.578 8.82031 198.791 8.48828 198.924C8.16016 199.053 7.78906 199.117 7.375 199.117C7.04688 199.117 6.74414 199.076 6.4668 198.994C6.18945 198.912 5.93945 198.781 5.7168 198.602C5.49805 198.418 5.31055 198.18 5.1543 197.887C4.99805 197.594 4.87891 197.238 4.79688 196.82C4.71484 196.402 4.67383 195.914 4.67383 195.355V194.055C4.67383 193.355 4.73633 192.77 4.86133 192.297C4.99023 191.824 5.17188 191.445 5.40625 191.16C5.64062 190.871 5.92188 190.664 6.25 190.539C6.58203 190.414 6.95312 190.352 7.36328 190.352C7.69531 190.352 8 190.393 8.27734 190.475C8.55859 190.553 8.80859 190.68 9.02734 190.855C9.24609 191.027 9.43164 191.258 9.58398 191.547C9.74023 191.832 9.85938 192.182 9.94141 192.596C10.0234 193.01 10.0645 193.496 10.0645 194.055ZM8.97461 195.531V193.873C8.97461 193.49 8.95117 193.154 8.9043 192.865C8.86133 192.572 8.79688 192.322 8.71094 192.115C8.625 191.908 8.51562 191.74 8.38281 191.611C8.25391 191.482 8.10352 191.389 7.93164 191.33C7.76367 191.268 7.57422 191.236 7.36328 191.236C7.10547 191.236 6.87695 191.285 6.67773 191.383C6.47852 191.477 6.31055 191.627 6.17383 191.834C6.04102 192.041 5.93945 192.312 5.86914 192.648C5.79883 192.984 5.76367 193.393 5.76367 193.873V195.531C5.76367 195.914 5.78516 196.252 5.82812 196.545C5.875 196.838 5.94336 197.092 6.0332 197.307C6.12305 197.518 6.23242 197.691 6.36133 197.828C6.49023 197.965 6.63867 198.066 6.80664 198.133C6.97852 198.195 7.16797 198.227 7.375 198.227C7.64062 198.227 7.87305 198.176 8.07227 198.074C8.27148 197.973 8.4375 197.814 8.57031 197.6C8.70703 197.381 8.80859 197.102 8.875 196.762C8.94141 196.418 8.97461 196.008 8.97461 195.531ZM11.5938 198.426C11.5938 198.242 11.6504 198.088 11.7637 197.963C11.8809 197.834 12.0488 197.77 12.2676 197.77C12.4863 197.77 12.6523 197.834 12.7656 197.963C12.8828 198.088 12.9414 198.242 12.9414 198.426C12.9414 198.605 12.8828 198.758 12.7656 198.883C12.6523 199.008 12.4863 199.07 12.2676 199.07C12.0488 199.07 11.8809 199.008 11.7637 198.883C11.6504 198.758 11.5938 198.605 11.5938 198.426ZM20.2129 198.109V199H14.6289V198.221L17.4238 195.109C17.7676 194.727 18.0332 194.402 18.2207 194.137C18.4121 193.867 18.5449 193.627 18.6191 193.416C18.6973 193.201 18.7363 192.982 18.7363 192.76C18.7363 192.479 18.6777 192.225 18.5605 191.998C18.4473 191.768 18.2793 191.584 18.0566 191.447C17.834 191.311 17.5645 191.242 17.248 191.242C16.8691 191.242 16.5527 191.316 16.2988 191.465C16.0488 191.609 15.8613 191.812 15.7363 192.074C15.6113 192.336 15.5488 192.637 15.5488 192.977H14.4648C14.4648 192.496 14.5703 192.057 14.7812 191.658C14.9922 191.26 15.3047 190.943 15.7188 190.709C16.1328 190.471 16.6426 190.352 17.248 190.352C17.7871 190.352 18.248 190.447 18.6309 190.639C19.0137 190.826 19.3066 191.092 19.5098 191.436C19.7168 191.775 19.8203 192.174 19.8203 192.631C19.8203 192.881 19.7773 193.135 19.6914 193.393C19.6094 193.646 19.4941 193.9 19.3457 194.154C19.2012 194.408 19.0312 194.658 18.8359 194.904C18.6445 195.15 18.4395 195.393 18.2207 195.631L15.9355 198.109H20.2129Z" fill="#50739B"/>
<path d="M10.0645 228.055V229.355C10.0645 230.055 10.002 230.645 9.87695 231.125C9.75195 231.605 9.57227 231.992 9.33789 232.285C9.10352 232.578 8.82031 232.791 8.48828 232.924C8.16016 233.053 7.78906 233.117 7.375 233.117C7.04688 233.117 6.74414 233.076 6.4668 232.994C6.18945 232.912 5.93945 232.781 5.7168 232.602C5.49805 232.418 5.31055 232.18 5.1543 231.887C4.99805 231.594 4.87891 231.238 4.79688 230.82C4.71484 230.402 4.67383 229.914 4.67383 229.355V228.055C4.67383 227.355 4.73633 226.77 4.86133 226.297C4.99023 225.824 5.17188 225.445 5.40625 225.16C5.64062 224.871 5.92188 224.664 6.25 224.539C6.58203 224.414 6.95312 224.352 7.36328 224.352C7.69531 224.352 8 224.393 8.27734 224.475C8.55859 224.553 8.80859 224.68 9.02734 224.855C9.24609 225.027 9.43164 225.258 9.58398 225.547C9.74023 225.832 9.85938 226.182 9.94141 226.596C10.0234 227.01 10.0645 227.496 10.0645 228.055ZM8.97461 229.531V227.873C8.97461 227.49 8.95117 227.154 8.9043 226.865C8.86133 226.572 8.79688 226.322 8.71094 226.115C8.625 225.908 8.51562 225.74 8.38281 225.611C8.25391 225.482 8.10352 225.389 7.93164 225.33C7.76367 225.268 7.57422 225.236 7.36328 225.236C7.10547 225.236 6.87695 225.285 6.67773 225.383C6.47852 225.477 6.31055 225.627 6.17383 225.834C6.04102 226.041 5.93945 226.312 5.86914 226.648C5.79883 226.984 5.76367 227.393 5.76367 227.873V229.531C5.76367 229.914 5.78516 230.252 5.82812 230.545C5.875 230.838 5.94336 231.092 6.0332 231.307C6.12305 231.518 6.23242 231.691 6.36133 231.828C6.49023 231.965 6.63867 232.066 6.80664 232.133C6.97852 232.195 7.16797 232.227 7.375 232.227C7.64062 232.227 7.87305 232.176 8.07227 232.074C8.27148 231.973 8.4375 231.814 8.57031 231.6C8.70703 231.381 8.80859 231.102 8.875 230.762C8.94141 230.418 8.97461 230.008 8.97461 229.531ZM11.5938 232.426C11.5938 232.242 11.6504 232.088 11.7637 231.963C11.8809 231.834 12.0488 231.77 12.2676 231.77C12.4863 231.77 12.6523 231.834 12.7656 231.963C12.8828 232.088 12.9414 232.242 12.9414 232.426C12.9414 232.605 12.8828 232.758 12.7656 232.883C12.6523 233.008 12.4863 233.07 12.2676 233.07C12.0488 233.07 11.8809 233.008 11.7637 232.883C11.6504 232.758 11.5938 232.605 11.5938 232.426ZM18.1855 224.422V233H17.1016V225.775L14.916 226.572V225.594L18.0156 224.422H18.1855Z" fill="#50739B"/>
<path opacity="0.4" d="M33 229H465" stroke="#E7EEF6"/>
<path opacity="0.4" d="M33 195H465" stroke="#E7EEF6"/>
<path opacity="0.4" d="M33 161H465" stroke="#E7EEF6"/>
<path opacity="0.4" d="M33 127H465" stroke="#E7EEF6"/>
<path opacity="0.4" d="M33 93H465" stroke="#E7EEF6"/>
<path d="M67.916 82L67.916 243" stroke="#B8CADD"/>
<path opacity="0.4" d="M155 82L155 243" stroke="#E7EEF6"/>
<path opacity="0.4" d="M243 82L243 243" stroke="#E7EEF6"/>
<path opacity="0.4" d="M330 82L330 243" stroke="#E7EEF6"/>
<path opacity="0.4" d="M417 82L417 243" stroke="#E7EEF6"/>
<path d="M6.89062 22.7598H8.59961C8.54492 23.4115 8.36263 23.9925 8.05273 24.5029C7.74284 25.0088 7.30762 25.4076 6.74707 25.6992C6.18652 25.9909 5.50521 26.1367 4.70312 26.1367C4.08789 26.1367 3.53418 26.0273 3.04199 25.8086C2.5498 25.5853 2.12826 25.2708 1.77734 24.8652C1.42643 24.4551 1.15755 23.9606 0.970703 23.3818C0.788411 22.8031 0.697266 22.1559 0.697266 21.4404V20.6133C0.697266 19.8978 0.79069 19.2507 0.977539 18.6719C1.16895 18.0931 1.44238 17.5986 1.79785 17.1885C2.15332 16.7738 2.57943 16.457 3.07617 16.2383C3.57747 16.0195 4.1403 15.9102 4.76465 15.9102C5.55762 15.9102 6.22754 16.056 6.77441 16.3477C7.32129 16.6393 7.74512 17.0426 8.0459 17.5576C8.35124 18.0726 8.53809 18.6628 8.60645 19.3281H6.89746C6.85189 18.8997 6.75163 18.5329 6.59668 18.2275C6.44629 17.9222 6.22298 17.6898 5.92676 17.5303C5.63053 17.3662 5.24316 17.2842 4.76465 17.2842C4.37272 17.2842 4.03092 17.3571 3.73926 17.5029C3.44759 17.6488 3.20378 17.863 3.00781 18.1455C2.81185 18.4281 2.66374 18.7767 2.56348 19.1914C2.46777 19.6016 2.41992 20.071 2.41992 20.5996V21.4404C2.41992 21.9417 2.46322 22.3975 2.5498 22.8076C2.64095 23.2132 2.77767 23.5618 2.95996 23.8535C3.14681 24.1452 3.38379 24.3708 3.6709 24.5303C3.95801 24.6898 4.30208 24.7695 4.70312 24.7695C5.19076 24.7695 5.58496 24.6921 5.88574 24.5371C6.19108 24.3822 6.42122 24.1566 6.57617 23.8604C6.73568 23.5596 6.84049 23.1927 6.89062 22.7598ZM11.6484 20.0117V26H10.001V18.6035H11.5732L11.6484 20.0117ZM13.9111 18.5557L13.8975 20.0869C13.7972 20.0687 13.6878 20.055 13.5693 20.0459C13.4554 20.0368 13.3415 20.0322 13.2275 20.0322C12.945 20.0322 12.6966 20.0732 12.4824 20.1553C12.2682 20.2327 12.0882 20.3467 11.9424 20.4971C11.8011 20.6429 11.6917 20.8206 11.6143 21.0303C11.5368 21.2399 11.4912 21.4746 11.4775 21.7344L11.1016 21.7617C11.1016 21.2969 11.1471 20.8662 11.2383 20.4697C11.3294 20.0732 11.4661 19.7246 11.6484 19.4238C11.8353 19.123 12.0677 18.8883 12.3457 18.7197C12.6283 18.5511 12.9541 18.4668 13.3232 18.4668C13.4235 18.4668 13.5306 18.4759 13.6445 18.4941C13.763 18.5124 13.8519 18.5329 13.9111 18.5557ZM14.4512 22.3838V22.2266C14.4512 21.6934 14.5286 21.1989 14.6836 20.7432C14.8385 20.2829 15.0618 19.8841 15.3535 19.5469C15.6497 19.2051 16.0098 18.9408 16.4336 18.7539C16.862 18.5625 17.3451 18.4668 17.8828 18.4668C18.4251 18.4668 18.9082 18.5625 19.332 18.7539C19.7604 18.9408 20.1227 19.2051 20.4189 19.5469C20.7152 19.8841 20.9408 20.2829 21.0957 20.7432C21.2507 21.1989 21.3281 21.6934 21.3281 22.2266V22.3838C21.3281 22.917 21.2507 23.4115 21.0957 23.8672C20.9408 24.3229 20.7152 24.7217 20.4189 25.0635C20.1227 25.4007 19.7627 25.665 19.3389 25.8564C18.915 26.0433 18.4342 26.1367 17.8965 26.1367C17.3542 26.1367 16.8688 26.0433 16.4404 25.8564C16.0166 25.665 15.6566 25.4007 15.3604 25.0635C15.0641 24.7217 14.8385 24.3229 14.6836 23.8672C14.5286 23.4115 14.4512 22.917 14.4512 22.3838ZM16.0986 22.2266V22.3838C16.0986 22.7165 16.1328 23.0309 16.2012 23.3271C16.2695 23.6234 16.3766 23.8831 16.5225 24.1064C16.6683 24.3298 16.8551 24.5052 17.083 24.6328C17.3109 24.7604 17.582 24.8242 17.8965 24.8242C18.2018 24.8242 18.4661 24.7604 18.6895 24.6328C18.9173 24.5052 19.1042 24.3298 19.25 24.1064C19.3958 23.8831 19.5029 23.6234 19.5713 23.3271C19.6442 23.0309 19.6807 22.7165 19.6807 22.3838V22.2266C19.6807 21.8984 19.6442 21.5885 19.5713 21.2969C19.5029 21.0007 19.3936 20.7386 19.2432 20.5107C19.0973 20.2829 18.9105 20.1051 18.6826 19.9775C18.4593 19.8454 18.1927 19.7793 17.8828 19.7793C17.5729 19.7793 17.304 19.8454 17.0762 19.9775C16.8529 20.1051 16.6683 20.2829 16.5225 20.5107C16.3766 20.7386 16.2695 21.0007 16.2012 21.2969C16.1328 21.5885 16.0986 21.8984 16.0986 22.2266ZM26.8584 23.9971C26.8584 23.833 26.8174 23.6849 26.7354 23.5527C26.6533 23.416 26.4961 23.293 26.2637 23.1836C26.0358 23.0742 25.6986 22.974 25.252 22.8828C24.86 22.7962 24.5 22.6937 24.1719 22.5752C23.8483 22.4521 23.5703 22.304 23.3379 22.1309C23.1055 21.9577 22.9255 21.7526 22.7979 21.5156C22.6702 21.2786 22.6064 21.0052 22.6064 20.6953C22.6064 20.3945 22.6725 20.1097 22.8047 19.8408C22.9368 19.5719 23.126 19.335 23.3721 19.1299C23.6182 18.9248 23.9167 18.763 24.2676 18.6445C24.623 18.526 25.0195 18.4668 25.457 18.4668C26.0768 18.4668 26.6077 18.5716 27.0498 18.7812C27.4964 18.9863 27.8382 19.2666 28.0752 19.6221C28.3122 19.973 28.4307 20.3695 28.4307 20.8115H26.7832C26.7832 20.6156 26.7331 20.4333 26.6328 20.2646C26.5371 20.0915 26.3913 19.9525 26.1953 19.8477C25.9993 19.7383 25.7533 19.6836 25.457 19.6836C25.1745 19.6836 24.9398 19.7292 24.7529 19.8203C24.5706 19.9069 24.4339 20.0208 24.3428 20.1621C24.2562 20.3034 24.2129 20.4583 24.2129 20.627C24.2129 20.75 24.2357 20.8617 24.2812 20.9619C24.3314 21.0576 24.4134 21.1465 24.5273 21.2285C24.6413 21.306 24.7962 21.3789 24.9922 21.4473C25.1927 21.5156 25.4434 21.5817 25.7441 21.6455C26.3092 21.764 26.7946 21.9167 27.2002 22.1035C27.6104 22.2858 27.9248 22.5228 28.1436 22.8145C28.3623 23.1016 28.4717 23.4661 28.4717 23.9082C28.4717 24.2363 28.401 24.5371 28.2598 24.8105C28.123 25.0794 27.9225 25.3141 27.6582 25.5146C27.3939 25.7106 27.0771 25.8633 26.708 25.9727C26.3434 26.082 25.9333 26.1367 25.4775 26.1367C24.8076 26.1367 24.2402 26.0182 23.7754 25.7812C23.3105 25.5397 22.9574 25.2321 22.7158 24.8584C22.4788 24.4801 22.3604 24.0882 22.3604 23.6826H23.9531C23.9714 23.988 24.0557 24.2318 24.2061 24.4141C24.361 24.5918 24.5524 24.7217 24.7803 24.8037C25.0127 24.8812 25.252 24.9199 25.498 24.9199C25.7943 24.9199 26.0426 24.8812 26.2432 24.8037C26.4437 24.7217 26.5964 24.6123 26.7012 24.4756C26.806 24.3343 26.8584 24.1748 26.8584 23.9971ZM34.0635 23.9971C34.0635 23.833 34.0225 23.6849 33.9404 23.5527C33.8584 23.416 33.7012 23.293 33.4688 23.1836C33.2409 23.0742 32.9036 22.974 32.457 22.8828C32.0651 22.7962 31.7051 22.6937 31.377 22.5752C31.0534 22.4521 30.7754 22.304 30.543 22.1309C30.3105 21.9577 30.1305 21.7526 30.0029 21.5156C29.8753 21.2786 29.8115 21.0052 29.8115 20.6953C29.8115 20.3945 29.8776 20.1097 30.0098 19.8408C30.1419 19.5719 30.3311 19.335 30.5771 19.1299C30.8232 18.9248 31.1217 18.763 31.4727 18.6445C31.8281 18.526 32.2246 18.4668 32.6621 18.4668C33.2819 18.4668 33.8128 18.5716 34.2549 18.7812C34.7015 18.9863 35.0433 19.2666 35.2803 19.6221C35.5173 19.973 35.6357 20.3695 35.6357 20.8115H33.9883C33.9883 20.6156 33.9382 20.4333 33.8379 20.2646C33.7422 20.0915 33.5964 19.9525 33.4004 19.8477C33.2044 19.7383 32.9583 19.6836 32.6621 19.6836C32.3796 19.6836 32.1449 19.7292 31.958 19.8203C31.7757 19.9069 31.639 20.0208 31.5479 20.1621C31.4613 20.3034 31.418 20.4583 31.418 20.627C31.418 20.75 31.4408 20.8617 31.4863 20.9619C31.5365 21.0576 31.6185 21.1465 31.7324 21.2285C31.8464 21.306 32.0013 21.3789 32.1973 21.4473C32.3978 21.5156 32.6484 21.5817 32.9492 21.6455C33.5143 21.764 33.9997 21.9167 34.4053 22.1035C34.8154 22.2858 35.1299 22.5228 35.3486 22.8145C35.5674 23.1016 35.6768 23.4661 35.6768 23.9082C35.6768 24.2363 35.6061 24.5371 35.4648 24.8105C35.3281 25.0794 35.1276 25.3141 34.8633 25.5146C34.599 25.7106 34.2822 25.8633 33.9131 25.9727C33.5485 26.082 33.1383 26.1367 32.6826 26.1367C32.0127 26.1367 31.4453 26.0182 30.9805 25.7812C30.5156 25.5397 30.1624 25.2321 29.9209 24.8584C29.6839 24.4801 29.5654 24.0882 29.5654 23.6826H31.1582C31.1764 23.988 31.2607 24.2318 31.4111 24.4141C31.5661 24.5918 31.7575 24.7217 31.9854 24.8037C32.2178 24.8812 32.457 24.9199 32.7031 24.9199C32.9993 24.9199 33.2477 24.8812 33.4482 24.8037C33.6488 24.7217 33.8014 24.6123 33.9062 24.4756C34.0111 24.3343 34.0635 24.1748 34.0635 23.9971ZM40.4346 21.0918V22.4043H36.8184V21.0918H40.4346ZM46.0264 23.9971C46.0264 23.833 45.9854 23.6849 45.9033 23.5527C45.8213 23.416 45.6641 23.293 45.4316 23.1836C45.2038 23.0742 44.8665 22.974 44.4199 22.8828C44.028 22.7962 43.668 22.6937 43.3398 22.5752C43.0163 22.4521 42.7383 22.304 42.5059 22.1309C42.2734 21.9577 42.0934 21.7526 41.9658 21.5156C41.8382 21.2786 41.7744 21.0052 41.7744 20.6953C41.7744 20.3945 41.8405 20.1097 41.9727 19.8408C42.1048 19.5719 42.2939 19.335 42.54 19.1299C42.7861 18.9248 43.0846 18.763 43.4355 18.6445C43.791 18.526 44.1875 18.4668 44.625 18.4668C45.2448 18.4668 45.7757 18.5716 46.2178 18.7812C46.6644 18.9863 47.0062 19.2666 47.2432 19.6221C47.4801 19.973 47.5986 20.3695 47.5986 20.8115H45.9512C45.9512 20.6156 45.901 20.4333 45.8008 20.2646C45.7051 20.0915 45.5592 19.9525 45.3633 19.8477C45.1673 19.7383 44.9212 19.6836 44.625 19.6836C44.3424 19.6836 44.1077 19.7292 43.9209 19.8203C43.7386 19.9069 43.6019 20.0208 43.5107 20.1621C43.4242 20.3034 43.3809 20.4583 43.3809 20.627C43.3809 20.75 43.4036 20.8617 43.4492 20.9619C43.4993 21.0576 43.5814 21.1465 43.6953 21.2285C43.8092 21.306 43.9642 21.3789 44.1602 21.4473C44.3607 21.5156 44.6113 21.5817 44.9121 21.6455C45.4772 21.764 45.9626 21.9167 46.3682 22.1035C46.7783 22.2858 47.0928 22.5228 47.3115 22.8145C47.5303 23.1016 47.6396 23.4661 47.6396 23.9082C47.6396 24.2363 47.569 24.5371 47.4277 24.8105C47.291 25.0794 47.0905 25.3141 46.8262 25.5146C46.5618 25.7106 46.2451 25.8633 45.876 25.9727C45.5114 26.082 45.1012 26.1367 44.6455 26.1367C43.9756 26.1367 43.4082 26.0182 42.9434 25.7812C42.4785 25.5397 42.1253 25.2321 41.8838 24.8584C41.6468 24.4801 41.5283 24.0882 41.5283 23.6826H43.1211C43.1393 23.988 43.2236 24.2318 43.374 24.4141C43.529 24.5918 43.7204 24.7217 43.9482 24.8037C44.1807 24.8812 44.4199 24.9199 44.666 24.9199C44.9622 24.9199 45.2106 24.8812 45.4111 24.8037C45.6117 24.7217 45.7643 24.6123 45.8691 24.4756C45.974 24.3343 46.0264 24.1748 46.0264 23.9971ZM52.3428 26.1367C51.7959 26.1367 51.3014 26.0479 50.8594 25.8701C50.4219 25.6878 50.0482 25.4349 49.7383 25.1113C49.4329 24.7878 49.1982 24.4072 49.0342 23.9697C48.8701 23.5322 48.7881 23.0605 48.7881 22.5547V22.2812C48.7881 21.7025 48.8724 21.1784 49.041 20.709C49.2096 20.2396 49.4443 19.8385 49.7451 19.5059C50.0459 19.1686 50.4014 18.9111 50.8115 18.7334C51.2217 18.5557 51.666 18.4668 52.1445 18.4668C52.6732 18.4668 53.1357 18.5557 53.5322 18.7334C53.9287 18.9111 54.2568 19.1618 54.5166 19.4854C54.7809 19.8044 54.9769 20.1849 55.1045 20.627C55.2367 21.069 55.3027 21.5566 55.3027 22.0898V22.7939H49.5879V21.6113H53.6758V21.4814C53.6667 21.1852 53.6074 20.9072 53.498 20.6475C53.3932 20.3877 53.2314 20.1781 53.0127 20.0186C52.7939 19.859 52.5023 19.7793 52.1377 19.7793C51.8643 19.7793 51.6204 19.8385 51.4062 19.957C51.1966 20.071 51.0212 20.2373 50.8799 20.4561C50.7386 20.6748 50.6292 20.9391 50.5518 21.249C50.4788 21.5544 50.4424 21.8984 50.4424 22.2812V22.5547C50.4424 22.8783 50.4857 23.179 50.5723 23.457C50.6634 23.7305 50.7956 23.9697 50.9688 24.1748C51.1419 24.3799 51.3516 24.5417 51.5977 24.6602C51.8438 24.7741 52.124 24.8311 52.4385 24.8311C52.835 24.8311 53.1882 24.7513 53.498 24.5918C53.8079 24.4323 54.0768 24.2067 54.3047 23.915L55.1729 24.7559C55.0133 24.9883 54.806 25.2116 54.5508 25.4258C54.2956 25.6354 53.9834 25.8063 53.6143 25.9385C53.2497 26.0706 52.8258 26.1367 52.3428 26.1367ZM59.6094 24.8242C59.8783 24.8242 60.1198 24.7718 60.334 24.667C60.5527 24.5576 60.7282 24.4072 60.8604 24.2158C60.9971 24.0244 61.0723 23.8034 61.0859 23.5527H62.6377C62.6286 24.0312 62.4873 24.4665 62.2139 24.8584C61.9404 25.2503 61.5781 25.5625 61.127 25.7949C60.6758 26.0228 60.1768 26.1367 59.6299 26.1367C59.0648 26.1367 58.5726 26.041 58.1533 25.8496C57.734 25.6536 57.3854 25.3848 57.1074 25.043C56.8294 24.7012 56.6198 24.307 56.4785 23.8604C56.3418 23.4137 56.2734 22.9352 56.2734 22.4248V22.1855C56.2734 21.6751 56.3418 21.1966 56.4785 20.75C56.6198 20.2988 56.8294 19.9023 57.1074 19.5605C57.3854 19.2188 57.734 18.9521 58.1533 18.7607C58.5726 18.5648 59.0625 18.4668 59.623 18.4668C60.2155 18.4668 60.735 18.5853 61.1816 18.8223C61.6283 19.0547 61.9792 19.3805 62.2344 19.7998C62.4941 20.2145 62.6286 20.6976 62.6377 21.249H61.0859C61.0723 20.9756 61.0039 20.7295 60.8809 20.5107C60.7624 20.2874 60.5938 20.1097 60.375 19.9775C60.1608 19.8454 59.9033 19.7793 59.6025 19.7793C59.2699 19.7793 58.9941 19.8477 58.7754 19.9844C58.5566 20.1165 58.3857 20.2988 58.2627 20.5312C58.1396 20.7591 58.0508 21.0166 57.9961 21.3037C57.946 21.5863 57.9209 21.8802 57.9209 22.1855V22.4248C57.9209 22.7301 57.946 23.0264 57.9961 23.3135C58.0462 23.6006 58.1328 23.8581 58.2559 24.0859C58.3835 24.3092 58.5566 24.4893 58.7754 24.626C58.9941 24.7581 59.2721 24.8242 59.6094 24.8242ZM67.293 18.6035V19.8066H63.123V18.6035H67.293ZM64.3262 16.792H65.9736V23.9561C65.9736 24.1839 66.0055 24.3594 66.0693 24.4824C66.1377 24.6009 66.2311 24.6807 66.3496 24.7217C66.4681 24.7627 66.6071 24.7832 66.7666 24.7832C66.8805 24.7832 66.9899 24.7764 67.0947 24.7627C67.1995 24.749 67.2839 24.7354 67.3477 24.7217L67.3545 25.9795C67.2178 26.0205 67.0583 26.057 66.876 26.0889C66.6982 26.1208 66.4932 26.1367 66.2607 26.1367C65.8825 26.1367 65.5475 26.0706 65.2559 25.9385C64.9642 25.8018 64.7363 25.5807 64.5723 25.2754C64.4082 24.9701 64.3262 24.5645 64.3262 24.0586V16.792ZM70.3281 18.6035V26H68.6738V18.6035H70.3281ZM68.5645 16.6621C68.5645 16.4115 68.6465 16.2041 68.8105 16.04C68.9792 15.8714 69.2116 15.7871 69.5078 15.7871C69.7995 15.7871 70.0296 15.8714 70.1982 16.04C70.3669 16.2041 70.4512 16.4115 70.4512 16.6621C70.4512 16.9082 70.3669 17.1133 70.1982 17.2773C70.0296 17.4414 69.7995 17.5234 69.5078 17.5234C69.2116 17.5234 68.9792 17.4414 68.8105 17.2773C68.6465 17.1133 68.5645 16.9082 68.5645 16.6621ZM71.8184 22.3838V22.2266C71.8184 21.6934 71.8958 21.1989 72.0508 20.7432C72.2057 20.2829 72.429 19.8841 72.7207 19.5469C73.0169 19.2051 73.377 18.9408 73.8008 18.7539C74.2292 18.5625 74.7122 18.4668 75.25 18.4668C75.7923 18.4668 76.2754 18.5625 76.6992 18.7539C77.1276 18.9408 77.4899 19.2051 77.7861 19.5469C78.0824 19.8841 78.3079 20.2829 78.4629 20.7432C78.6178 21.1989 78.6953 21.6934 78.6953 22.2266V22.3838C78.6953 22.917 78.6178 23.4115 78.4629 23.8672C78.3079 24.3229 78.0824 24.7217 77.7861 25.0635C77.4899 25.4007 77.1299 25.665 76.7061 25.8564C76.2822 26.0433 75.8014 26.1367 75.2637 26.1367C74.7214 26.1367 74.236 26.0433 73.8076 25.8564C73.3838 25.665 73.0238 25.4007 72.7275 25.0635C72.4313 24.7217 72.2057 24.3229 72.0508 23.8672C71.8958 23.4115 71.8184 22.917 71.8184 22.3838ZM73.4658 22.2266V22.3838C73.4658 22.7165 73.5 23.0309 73.5684 23.3271C73.6367 23.6234 73.7438 23.8831 73.8896 24.1064C74.0355 24.3298 74.2223 24.5052 74.4502 24.6328C74.6781 24.7604 74.9492 24.8242 75.2637 24.8242C75.569 24.8242 75.8333 24.7604 76.0566 24.6328C76.2845 24.5052 76.4714 24.3298 76.6172 24.1064C76.763 23.8831 76.8701 23.6234 76.9385 23.3271C77.0114 23.0309 77.0479 22.7165 77.0479 22.3838V22.2266C77.0479 21.8984 77.0114 21.5885 76.9385 21.2969C76.8701 21.0007 76.7607 20.7386 76.6104 20.5107C76.4645 20.2829 76.2777 20.1051 76.0498 19.9775C75.8265 19.8454 75.5599 19.7793 75.25 19.7793C74.9401 19.7793 74.6712 19.8454 74.4434 19.9775C74.2201 20.1051 74.0355 20.2829 73.8896 20.5107C73.7438 20.7386 73.6367 21.0007 73.5684 21.2969C73.5 21.5885 73.4658 21.8984 73.4658 22.2266ZM81.71 20.1826V26H80.0625V18.6035H81.6143L81.71 20.1826ZM81.416 22.0283L80.8828 22.0215C80.8874 21.4974 80.9603 21.0166 81.1016 20.5791C81.2474 20.1416 81.4479 19.7656 81.7031 19.4512C81.9629 19.1367 82.2728 18.8952 82.6328 18.7266C82.9928 18.5534 83.3939 18.4668 83.8359 18.4668C84.1914 18.4668 84.5127 18.5169 84.7998 18.6172C85.0915 18.7129 85.3398 18.8701 85.5449 19.0889C85.7546 19.3076 85.9141 19.5924 86.0234 19.9434C86.1328 20.2897 86.1875 20.7158 86.1875 21.2217V26H84.5332V21.2148C84.5332 20.8594 84.4808 20.5791 84.376 20.374C84.2757 20.1644 84.1276 20.0163 83.9316 19.9297C83.7402 19.8385 83.501 19.793 83.2139 19.793C82.9313 19.793 82.6784 19.8522 82.4551 19.9707C82.2318 20.0892 82.0426 20.251 81.8877 20.4561C81.7373 20.6611 81.6211 20.8981 81.5391 21.167C81.457 21.4359 81.416 21.723 81.416 22.0283ZM93.0098 20.0254V28.8438H91.3623V18.6035H92.8799L93.0098 20.0254ZM97.8291 22.2334V22.377C97.8291 22.9147 97.7653 23.4137 97.6377 23.874C97.5146 24.3298 97.3301 24.7285 97.084 25.0703C96.8424 25.4076 96.5439 25.6696 96.1885 25.8564C95.833 26.0433 95.4229 26.1367 94.958 26.1367C94.4977 26.1367 94.0944 26.0524 93.748 25.8838C93.4062 25.7106 93.1169 25.4668 92.8799 25.1523C92.6429 24.8379 92.4515 24.4688 92.3057 24.0449C92.1644 23.6165 92.0641 23.1471 92.0049 22.6367V22.083C92.0641 21.5407 92.1644 21.0485 92.3057 20.6064C92.4515 20.1644 92.6429 19.7839 92.8799 19.4648C93.1169 19.1458 93.4062 18.8997 93.748 18.7266C94.0898 18.5534 94.4886 18.4668 94.9443 18.4668C95.4092 18.4668 95.8216 18.5579 96.1816 18.7402C96.5417 18.918 96.8447 19.1732 97.0908 19.5059C97.3369 19.834 97.5215 20.2305 97.6445 20.6953C97.7676 21.1556 97.8291 21.6683 97.8291 22.2334ZM96.1816 22.377V22.2334C96.1816 21.8916 96.1497 21.5749 96.0859 21.2832C96.0221 20.987 95.9219 20.7272 95.7852 20.5039C95.6484 20.2806 95.473 20.1074 95.2588 19.9844C95.0492 19.8568 94.7962 19.793 94.5 19.793C94.2083 19.793 93.9577 19.8431 93.748 19.9434C93.5384 20.0391 93.363 20.1735 93.2217 20.3467C93.0804 20.5199 92.971 20.7227 92.8936 20.9551C92.8161 21.1829 92.7614 21.4313 92.7295 21.7002V23.0264C92.7842 23.3545 92.8776 23.6553 93.0098 23.9287C93.1419 24.2021 93.3288 24.4209 93.5703 24.585C93.8164 24.7445 94.1309 24.8242 94.5137 24.8242C94.8099 24.8242 95.0628 24.7604 95.2725 24.6328C95.4821 24.5052 95.653 24.3298 95.7852 24.1064C95.9219 23.8786 96.0221 23.6165 96.0859 23.3203C96.1497 23.0241 96.1816 22.7096 96.1816 22.377ZM100.994 15.5V26H99.3398V15.5H100.994ZM106.969 24.5166V20.9893C106.969 20.7249 106.921 20.4971 106.825 20.3057C106.729 20.1143 106.584 19.9661 106.388 19.8613C106.196 19.7565 105.955 19.7041 105.663 19.7041C105.394 19.7041 105.162 19.7497 104.966 19.8408C104.77 19.932 104.617 20.055 104.508 20.21C104.398 20.3649 104.344 20.5404 104.344 20.7363H102.703C102.703 20.4447 102.774 20.1621 102.915 19.8887C103.056 19.6152 103.261 19.3714 103.53 19.1572C103.799 18.943 104.12 18.7744 104.494 18.6514C104.868 18.5283 105.287 18.4668 105.752 18.4668C106.308 18.4668 106.8 18.5602 107.229 18.7471C107.661 18.9339 108.001 19.2165 108.247 19.5947C108.498 19.9684 108.623 20.4378 108.623 21.0029V24.291C108.623 24.6283 108.646 24.9313 108.691 25.2002C108.742 25.4645 108.812 25.6947 108.903 25.8906V26H107.215C107.137 25.8223 107.076 25.5967 107.03 25.3232C106.989 25.0452 106.969 24.7764 106.969 24.5166ZM107.208 21.502L107.222 22.5205H106.039C105.734 22.5205 105.465 22.5501 105.232 22.6094C105 22.6641 104.806 22.7461 104.651 22.8555C104.496 22.9648 104.38 23.097 104.303 23.252C104.225 23.4069 104.187 23.5824 104.187 23.7783C104.187 23.9743 104.232 24.1543 104.323 24.3184C104.414 24.4779 104.547 24.6032 104.72 24.6943C104.897 24.7855 105.112 24.8311 105.362 24.8311C105.7 24.8311 105.993 24.7627 106.244 24.626C106.499 24.4847 106.7 24.3138 106.846 24.1133C106.992 23.9082 107.069 23.7145 107.078 23.5322L107.611 24.2637C107.557 24.4505 107.463 24.651 107.331 24.8652C107.199 25.0794 107.026 25.2845 106.812 25.4805C106.602 25.6719 106.349 25.8291 106.053 25.9521C105.761 26.0752 105.424 26.1367 105.041 26.1367C104.558 26.1367 104.127 26.041 103.749 25.8496C103.371 25.6536 103.075 25.3916 102.86 25.0635C102.646 24.7308 102.539 24.3548 102.539 23.9355C102.539 23.5436 102.612 23.1973 102.758 22.8965C102.908 22.5911 103.127 22.3359 103.414 22.1309C103.706 21.9258 104.061 21.7708 104.48 21.666C104.9 21.5566 105.378 21.502 105.916 21.502H107.208ZM111.979 20.1826V26H110.332V18.6035H111.884L111.979 20.1826ZM111.686 22.0283L111.152 22.0215C111.157 21.4974 111.23 21.0166 111.371 20.5791C111.517 20.1416 111.717 19.7656 111.973 19.4512C112.232 19.1367 112.542 18.8952 112.902 18.7266C113.262 18.5534 113.663 18.4668 114.105 18.4668C114.461 18.4668 114.782 18.5169 115.069 18.6172C115.361 18.7129 115.609 18.8701 115.814 19.0889C116.024 19.3076 116.184 19.5924 116.293 19.9434C116.402 20.2897 116.457 20.7158 116.457 21.2217V26H114.803V21.2148C114.803 20.8594 114.75 20.5791 114.646 20.374C114.545 20.1644 114.397 20.0163 114.201 19.9297C114.01 19.8385 113.771 19.793 113.483 19.793C113.201 19.793 112.948 19.8522 112.725 19.9707C112.501 20.0892 112.312 20.251 112.157 20.4561C112.007 20.6611 111.891 20.8981 111.809 21.167C111.727 21.4359 111.686 21.723 111.686 22.0283ZM121.399 26.1367C120.853 26.1367 120.358 26.0479 119.916 25.8701C119.479 25.6878 119.105 25.4349 118.795 25.1113C118.49 24.7878 118.255 24.4072 118.091 23.9697C117.927 23.5322 117.845 23.0605 117.845 22.5547V22.2812C117.845 21.7025 117.929 21.1784 118.098 20.709C118.266 20.2396 118.501 19.8385 118.802 19.5059C119.103 19.1686 119.458 18.9111 119.868 18.7334C120.278 18.5557 120.723 18.4668 121.201 18.4668C121.73 18.4668 122.192 18.5557 122.589 18.7334C122.985 18.9111 123.313 19.1618 123.573 19.4854C123.838 19.8044 124.034 20.1849 124.161 20.627C124.293 21.069 124.359 21.5566 124.359 22.0898V22.7939H118.645V21.6113H122.732V21.4814C122.723 21.1852 122.664 20.9072 122.555 20.6475C122.45 20.3877 122.288 20.1781 122.069 20.0186C121.851 19.859 121.559 19.7793 121.194 19.7793C120.921 19.7793 120.677 19.8385 120.463 19.957C120.253 20.071 120.078 20.2373 119.937 20.4561C119.795 20.6748 119.686 20.9391 119.608 21.249C119.535 21.5544 119.499 21.8984 119.499 22.2812V22.5547C119.499 22.8783 119.542 23.179 119.629 23.457C119.72 23.7305 119.852 23.9697 120.025 24.1748C120.199 24.3799 120.408 24.5417 120.654 24.6602C120.9 24.7741 121.181 24.8311 121.495 24.8311C121.892 24.8311 122.245 24.7513 122.555 24.5918C122.865 24.4323 123.133 24.2067 123.361 23.915L124.229 24.7559C124.07 24.9883 123.863 25.2116 123.607 25.4258C123.352 25.6354 123.04 25.8063 122.671 25.9385C122.306 26.0706 121.882 26.1367 121.399 26.1367Z" fill="#224063"/>
<path d="M290.148 17.2246L287.324 25H286.17L289.422 16.4688H290.166L290.148 17.2246ZM292.516 25L289.686 17.2246L289.668 16.4688H290.412L293.676 25H292.516ZM292.369 21.8418V22.7676H287.576V21.8418H292.369ZM295.738 20.0137V25H294.654V18.6602H295.68L295.738 20.0137ZM295.48 21.5898L295.029 21.5723C295.033 21.1387 295.098 20.7383 295.223 20.3711C295.348 20 295.523 19.6777 295.75 19.4043C295.977 19.1309 296.246 18.9199 296.559 18.7715C296.875 18.6191 297.225 18.543 297.607 18.543C297.92 18.543 298.201 18.5859 298.451 18.6719C298.701 18.7539 298.914 18.8867 299.09 19.0703C299.27 19.2539 299.406 19.4922 299.5 19.7852C299.594 20.0742 299.641 20.4277 299.641 20.8457V25H298.551V20.834C298.551 20.502 298.502 20.2363 298.404 20.0371C298.307 19.834 298.164 19.6875 297.977 19.5977C297.789 19.5039 297.559 19.457 297.285 19.457C297.016 19.457 296.77 19.5137 296.547 19.627C296.328 19.7402 296.139 19.8965 295.979 20.0957C295.822 20.2949 295.699 20.5234 295.609 20.7812C295.523 21.0352 295.48 21.3047 295.48 21.5898ZM305.395 18.6602H306.379V24.8652C306.379 25.4238 306.266 25.9004 306.039 26.2949C305.812 26.6895 305.496 26.9883 305.09 27.1914C304.688 27.3984 304.223 27.502 303.695 27.502C303.477 27.502 303.219 27.4668 302.922 27.3965C302.629 27.3301 302.34 27.2148 302.055 27.0508C301.773 26.8906 301.537 26.6738 301.346 26.4004L301.914 25.7559C302.18 26.0762 302.457 26.2988 302.746 26.4238C303.039 26.5488 303.328 26.6113 303.613 26.6113C303.957 26.6113 304.254 26.5469 304.504 26.418C304.754 26.2891 304.947 26.0977 305.084 25.8438C305.225 25.5938 305.295 25.2852 305.295 24.918V20.0547L305.395 18.6602ZM301.029 21.9004V21.7773C301.029 21.293 301.086 20.8535 301.199 20.459C301.316 20.0605 301.482 19.7188 301.697 19.4336C301.916 19.1484 302.18 18.9297 302.488 18.7773C302.797 18.6211 303.145 18.543 303.531 18.543C303.93 18.543 304.277 18.6133 304.574 18.7539C304.875 18.8906 305.129 19.0918 305.336 19.3574C305.547 19.6191 305.713 19.9355 305.834 20.3066C305.955 20.6777 306.039 21.0977 306.086 21.5664V22.1055C306.043 22.5703 305.959 22.9883 305.834 23.3594C305.713 23.7305 305.547 24.0469 305.336 24.3086C305.129 24.5703 304.875 24.7715 304.574 24.9121C304.273 25.0488 303.922 25.1172 303.52 25.1172C303.141 25.1172 302.797 25.0371 302.488 24.877C302.184 24.7168 301.922 24.4922 301.703 24.2031C301.484 23.9141 301.316 23.5742 301.199 23.1836C301.086 22.7891 301.029 22.3613 301.029 21.9004ZM302.113 21.7773V21.9004C302.113 22.2168 302.145 22.5137 302.207 22.791C302.273 23.0684 302.373 23.3125 302.506 23.5234C302.643 23.7344 302.816 23.9004 303.027 24.0215C303.238 24.1387 303.49 24.1973 303.783 24.1973C304.143 24.1973 304.439 24.1211 304.674 23.9688C304.908 23.8164 305.094 23.6152 305.23 23.3652C305.371 23.1152 305.48 22.8438 305.559 22.5508V21.1387C305.516 20.9238 305.449 20.7168 305.359 20.5176C305.273 20.3145 305.16 20.1348 305.02 19.9785C304.883 19.8184 304.713 19.6914 304.51 19.5977C304.307 19.5039 304.068 19.457 303.795 19.457C303.498 19.457 303.242 19.5195 303.027 19.6445C302.816 19.7656 302.643 19.9336 302.506 20.1484C302.373 20.3594 302.273 20.6055 302.207 20.8867C302.145 21.1641 302.113 21.4609 302.113 21.7773ZM309.203 16V25H308.113V16H309.203ZM313.574 25.1172C313.133 25.1172 312.732 25.043 312.373 24.8945C312.018 24.7422 311.711 24.5293 311.453 24.2559C311.199 23.9824 311.004 23.6582 310.867 23.2832C310.73 22.9082 310.662 22.498 310.662 22.0527V21.8066C310.662 21.291 310.738 20.832 310.891 20.4297C311.043 20.0234 311.25 19.6797 311.512 19.3984C311.773 19.1172 312.07 18.9043 312.402 18.7598C312.734 18.6152 313.078 18.543 313.434 18.543C313.887 18.543 314.277 18.6211 314.605 18.7773C314.938 18.9336 315.209 19.1523 315.42 19.4336C315.631 19.7109 315.787 20.0391 315.889 20.418C315.99 20.793 316.041 21.2031 316.041 21.6484V22.1348H311.307V21.25H314.957V21.168C314.941 20.8867 314.883 20.6133 314.781 20.3477C314.684 20.082 314.527 19.8633 314.312 19.6914C314.098 19.5195 313.805 19.4336 313.434 19.4336C313.188 19.4336 312.961 19.4863 312.754 19.5918C312.547 19.6934 312.369 19.8457 312.221 20.0488C312.072 20.252 311.957 20.5 311.875 20.793C311.793 21.0859 311.752 21.4238 311.752 21.8066V22.0527C311.752 22.3535 311.793 22.6367 311.875 22.9023C311.961 23.1641 312.084 23.3945 312.244 23.5938C312.408 23.793 312.605 23.9492 312.836 24.0625C313.07 24.1758 313.336 24.2324 313.633 24.2324C314.016 24.2324 314.34 24.1543 314.605 23.998C314.871 23.8418 315.104 23.6328 315.303 23.3711L315.959 23.8926C315.822 24.0996 315.648 24.2969 315.438 24.4844C315.227 24.6719 314.967 24.8242 314.658 24.9414C314.354 25.0586 313.992 25.1172 313.574 25.1172Z" fill="#50739B"/>
<g opacity="0.38">
<rect x="329" y="20" width="140" height="2" rx="1" fill="#BDBDBD"/>
</g>
<rect x="329" y="20" width="48" height="2" rx="1" fill="#224063"/>
<g clip-path="url(#clip0_12443_18667)">
<rect x="367" y="15" width="12" height="12" rx="6" fill="#224063"/>
<g filter="url(#filter0_ddd_12443_18667)">
<circle cx="373" cy="21" r="6" fill="#0C7CBB"/>
</g>
</g>
<path d="M103.5 232.5C123 204.667 174.8 146.2 226 135C290 121 338.5 151 382.5 202.5" stroke="#EF8636" stroke-width="5" stroke-linecap="round"/>
</g>
<defs>
<filter id="filter0_ddd_12443_18667" x="362" y="11" width="22" height="22" filterUnits="userSpaceOnUse" color-interpolation-filters="sRGB">
<feFlood flood-opacity="0" result="BackgroundImageFix"/>
<feColorMatrix in="SourceAlpha" type="matrix" values="0 0 0 0 0 0 0 0 0 0 0 0 0 0 0 0 0 0 127 0" result="hardAlpha"/>
<feOffset dy="1"/>
<feGaussianBlur stdDeviation="2.5"/>
<feComposite in2="hardAlpha" operator="out"/>
<feColorMatrix type="matrix" values="0 0 0 0 0 0 0 0 0 0 0 0 0 0 0 0 0 0 0.12 0"/>
<feBlend mode="normal" in2="BackgroundImageFix" result="effect1_dropShadow_12443_18667"/>
<feColorMatrix in="SourceAlpha" type="matrix" values="0 0 0 0 0 0 0 0 0 0 0 0 0 0 0 0 0 0 127 0" result="hardAlpha"/>
<feOffset dy="2"/>
<feGaussianBlur stdDeviation="1"/>
<feComposite in2="hardAlpha" operator="out"/>
<feColorMatrix type="matrix" values="0 0 0 0 0 0 0 0 0 0 0 0 0 0 0 0 0 0 0.14 0"/>
<feBlend mode="normal" in2="effect1_dropShadow_12443_18667" result="effect2_dropShadow_12443_18667"/>
<feColorMatrix in="SourceAlpha" type="matrix" values="0 0 0 0 0 0 0 0 0 0 0 0 0 0 0 0 0 0 127 0" result="hardAlpha"/>
<feMorphology radius="2" operator="erode" in="SourceAlpha" result="effect3_dropShadow_12443_18667"/>
<feOffset dy="3"/>
<feGaussianBlur stdDeviation="0.5"/>
<feComposite in2="hardAlpha" operator="out"/>
<feColorMatrix type="matrix" values="0 0 0 0 0 0 0 0 0 0 0 0 0 0 0 0 0 0 0.2 0"/>
<feBlend mode="normal" in2="effect2_dropShadow_12443_18667" result="effect3_dropShadow_12443_18667"/>
<feBlend mode="normal" in="SourceGraphic" in2="effect3_dropShadow_12443_18667" result="shape"/>
</filter>
<clipPath id="clip0_12443_18667">
<rect x="367" y="15" width="12" height="12" rx="6" fill="white"/>
</clipPath>
</defs>
</svg>
