<svg width="92" height="53" viewBox="0 0 92 53" fill="none" xmlns="http://www.w3.org/2000/svg">
<g id="Group 4016">
<path id="Vector 515" d="M21 45H43C45.2091 45 47 43.2091 47 41V11C47 8.79086 48.7909 7 51 7H68.5" stroke="#224063" stroke-width="4" stroke-linecap="round" stroke-linejoin="round"/>
<path id="Vector 516" d="M70 2V12.5" stroke="#224063" stroke-width="4" stroke-linecap="round" stroke-linejoin="round"/>
<path id="Vector 520" d="M77 2V12.5" stroke="#DFE7EF" stroke-width="4" stroke-linecap="round" stroke-linejoin="round"/>
<path id="Vector 521" d="M13.5 51L13.5 40.5" stroke="#DFE7EF" stroke-width="4" stroke-linecap="round" stroke-linejoin="round"/>
<path id="Vector 517" d="M20 40V50.5" stroke="#224063" stroke-width="4" stroke-linecap="round" stroke-linejoin="round"/>
<path id="Vector 519" d="M89.5 48L79 48" stroke="#DFE7EF" stroke-width="4" stroke-linecap="round" stroke-linejoin="round"/>
<path id="Vector 522" d="M2 5L12.5 5" stroke="#DFE7EF" stroke-width="4" stroke-linecap="round" stroke-linejoin="round"/>
<path id="Vector 518" d="M78 7H80.5C82.1569 7 83.5 8.34315 83.5 10V47" stroke="#DFE7EF" stroke-width="4" stroke-linecap="round" stroke-linejoin="round"/>
<path id="Vector 523" d="M12.5 46L10 46C8.34315 46 7 44.6569 7 43L7 6" stroke="#DFE7EF" stroke-width="4" stroke-linecap="round" stroke-linejoin="round"/>
</g>
</svg>
