<svg width="38" height="38" viewBox="0 0 38 38" fill="none" xmlns="http://www.w3.org/2000/svg">
<g id="Group 26992">
<g id="Group 26993">
<g id="Group 26991">
<path id="Subtract" fill-rule="evenodd" clip-rule="evenodd" d="M32.0379 29.141C32.9292 28.6977 33.5455 27.7764 33.5455 26.7181V7.79322C33.5455 6.30626 32.3289 5.08966 30.8419 5.08966H11.917C10.8587 5.08966 9.9374 5.70589 9.49412 6.59725L22.7479 19.851L24.2182 17.9586C24.4885 17.6071 25.0293 17.6071 25.2996 17.9721L30.0443 24.2984C30.3823 24.7445 30.0579 25.3799 29.5036 25.3799H28.2767L32.0379 29.141ZM29.4901 29.4217L25.4483 25.3799H13.2958C12.7281 25.3799 12.4172 24.731 12.7686 24.2849L16.1345 19.9592C16.3914 19.6078 16.9051 19.5942 17.1889 19.9322L20.0277 23.3522L21.5112 21.4427L9.21344 9.14499V26.7181C9.21344 28.2051 10.43 29.4217 11.917 29.4217H29.4901Z" fill="#B7B7B7"/>
<line id="Line 91" x1="0.707107" y1="1.29289" x2="36.7071" y2="37.2929" stroke="#B7B7B7" stroke-width="2"/>
</g>
</g>
</g>
</svg>
