<?xml version="1.0" encoding="utf-8"?>
<svg version="1.2" baseProfile="tiny-ps" xmlns="http://www.w3.org/2000/svg" width="141px" height="193px" viewBox="0 0 141 193" preserveAspectRatio="xMidYMid meet">
 <g fill="#fcfdfe">
  <path d="M0 96.50 l0 -96.50 70.50 0 70.50 0 0 96.50 0 96.50 -70.50 0 -70.50 0 0 -96.50z m128.20 87 c0.70 -0.25 1.75 -1.20 2.30 -2.10 0.95 -1.60 1 -2.55 1 -23.75 0 -21.80 0 -22.15 -1 -22.15 -1 0 -1 -0.35 -1 -49.35 l0 -49.40 -13.35 -13.35 c-10.10 -10.10 -13.70 -13.40 -14.60 -13.40 -1.10 0 -1 0.25 1.40 2.70 l2.55 2.75 0 6.75 c0 3.90 0.20 6.80 0.45 6.80 0.25 0 0.55 0.60 0.65 1.35 0.10 1 0.70 1.70 2.15 2.50 1.80 1 2.70 1.15 8.40 1.15 4.65 0 6.45 0.15 6.60 0.65 0.15 0.30 0.30 23.15 0.35 50.75 l0.15 50.10 -58.35 0 -58.40 0 0 22.45 0 22.50 1.70 1.75 1.65 1.80 58.05 0 c36.50 0 58.50 -0.20 59.30 -0.50z m-32.70 -78.90 c0 -0.65 -0.60 -1.10 -1.10 -0.80 -0.50 0.30 -0.05 1.20 0.65 1.20 0.25 0 0.45 -0.20 0.45 -0.40z m-20.50 -20.35 c0 -0.20 -16.70 -0.40 -20.80 -0.25 -0.15 0 -0.15 0.15 -0.05 0.40 0.30 0.40 20.85 0.30 20.85 -0.15z m-49.50 -37 c1.80 -2.90 3.55 -5.85 3.90 -6.50 0.50 -1 1.05 -1.25 2.60 -1.25 1.85 0 2.05 0.15 3.75 3.05 0.95 1.65 1.75 3.20 1.75 3.45 0 0.20 0.15 0.50 0.40 0.60 0.20 0.10 1.15 1.45 2.10 3.05 l1.70 2.85 2.90 0 c1.60 0 2.90 -0.10 2.90 -0.20 0 -0.15 -1.15 -2.10 -2.55 -4.40 -1.45 -2.30 -3.05 -4.95 -3.60 -5.90 -0.50 -0.95 -1.40 -2.35 -1.90 -3.10 -0.55 -0.70 -0.95 -1.45 -0.95 -1.65 0 -0.15 -0.55 -1.15 -1.25 -2.15 -2.10 -3.10 -1.80 -4.25 3.65 -13.15 2.65 -4.45 5.25 -8.65 5.70 -9.35 0.45 -0.75 0.85 -1.50 0.85 -1.70 0.05 -0.25 -1.25 -0.40 -2.85 -0.40 l-2.90 0 -3.25 5.25 c-1.75 2.90 -3.50 5.80 -3.85 6.50 -0.55 1 -1.05 1.25 -2.60 1.25 -1.90 0 -2.05 -0.10 -4.10 -3.60 -1.20 -1.95 -2.75 -4.60 -3.55 -5.85 -0.75 -1.25 -1.50 -2.60 -1.65 -2.90 -0.30 -0.65 -6.20 -1 -6.20 -0.40 0 0.35 1.15 2.45 1.55 2.75 0.15 0.15 0.80 1.25 1.50 2.50 0.65 1.25 1.35 2.45 1.60 2.75 0.80 1.05 4.35 6.80 4.35 7.05 0 0.15 0.55 1.10 1.25 2.10 2.35 3.45 2.25 3.75 -9.35 22.50 -0.45 0.75 -0.85 1.50 -0.85 1.75 -0.05 0.20 1.25 0.35 2.85 0.35 l2.90 0 3.20 -5.25z"/>
  <path d="M61.90 173.65 l-29.90 -0.15 0 -3.25 0 -3.25 1.70 0 c1.35 0 1.95 -0.35 3.10 -1.85 2.95 -3.85 3.75 -5.25 3.30 -5.85 -4.20 -5.70 -4.30 -5.80 -5.95 -5.80 l-1.65 0 0 -3.50 0 -3.50 22 0 22 0 0 3.50 0 3.50 -2 0 -2.05 0 0.15 6.65 0.15 6.60 2.25 0 2.25 0 0.15 -3.60 0.15 -3.65 3.70 0 3.75 0 0 1.50 c0 1.45 0.10 1.50 2.15 1.50 l2.10 0 -1.50 -0.95 c-2.60 -1.60 -3.30 -2.80 -3.60 -5.90 -0.50 -5.30 1.10 -8.35 4.85 -9.30 0.70 -0.20 3.90 -0.20 7.15 0 l5.85 0.30 0 4.95 0 4.90 -1.85 0 -1.90 0 1.60 1.15 c3.45 2.40 4.65 8.20 2.60 12.55 -1.35 2.90 -3.30 3.85 -7.55 3.70 -1.70 -0.10 -16.60 -0.20 -33 -0.25z m1.60 -13.40 l0 -6.75 -2.90 0 c-3.20 0 -3.70 0.30 -6.30 4.25 -1.55 2.40 -1.55 2.30 -0.25 3.80 0.60 0.65 1.65 2 2.40 2.95 1.75 2.40 1.95 2.50 4.70 2.50 l2.35 0 0 -6.75z m31 5.80 c0 -0.55 -1.95 -2.05 -2.60 -2.05 -0.60 0 -0.45 1.25 0.20 1.90 0.70 0.70 2.40 0.80 2.40 0.15z"/>
 </g>
 <g fill="#00c362">
  <path d="M10 185.35 c-0.80 -0.20 -2.05 -1.10 -2.75 -2.05 l-1.25 -1.65 0 -23.80 0 -23.85 58.15 -0.05 c31.95 -0.05 58.25 -0.05 58.45 0 0.20 0 0.25 -0.30 0.10 -0.70 -0.25 -0.65 0.40 -0.75 4 -0.75 3.50 0 4.30 0.15 4.30 0.75 0 0.40 0.45 0.75 1 0.75 1 0 1 0.35 1 23.65 0 22.70 -0.05 23.65 -1 25.25 -0.55 0.90 -1.60 1.85 -2.40 2.15 -1.60 0.65 -117.15 0.95 -119.60 0.30z m88.25 -13.65 c1.10 -0.50 2 -1.50 2.70 -3 1.25 -2.60 1.30 -3.50 0.30 -5.85 -1 -2.35 -2.35 -3.60 -6 -5.45 -1.65 -0.85 -3.40 -1.85 -3.85 -2.30 -1.25 -1.10 -1.10 -2.55 0.30 -3.15 1.80 -0.85 3.60 -0.20 4.30 1.55 0.55 1.30 0.90 1.50 2.55 1.50 l1.95 0 0 -3.50 0 -3.50 -1.75 0 c-1.20 0 -1.75 0.25 -1.75 0.75 0 1 -0.45 0.95 -1.60 -0.10 -1.40 -1.25 -5.35 -1.10 -7.30 0.30 -2.80 2 -3.30 6.90 -0.90 9.45 0.55 0.65 2.70 2.10 4.70 3.20 4.55 2.50 5.65 4.30 3.80 6.10 -1.75 1.80 -5.50 0.40 -5.80 -2.10 -0.15 -1.15 -0.40 -1.35 -2 -1.50 l-1.90 -0.15 0 4 0 4.05 1.75 0 c1.20 0 1.75 -0.25 1.75 -0.75 0 -0.60 0.30 -0.60 1.85 0.25 2.25 1.20 4.65 1.30 6.90 0.20z m-53.25 -1.45 c0 -1.55 -0.15 -1.75 -1.25 -1.75 -0.70 0 -1.25 -0.20 -1.25 -0.40 0 -0.65 2.95 -4.60 3.40 -4.60 0.50 0 2.10 1.85 2.10 2.45 0 0.25 0.35 0.70 0.75 1.05 1.05 0.90 0.95 1.40 -0.35 1.60 -0.90 0.10 -1.20 0.55 -1.30 1.80 l-0.15 1.60 6.50 0 6.55 0 0 -1.75 c0 -1.55 -0.15 -1.75 -1.35 -1.75 -1.70 0 -2.05 -0.25 -3.75 -2.60 -0.75 -1 -1.70 -2.10 -2.05 -2.50 -0.35 -0.35 -1.05 -1.35 -1.55 -2.20 l-0.90 -1.55 1.90 -2.70 c3.05 -4.35 3.70 -4.95 5.55 -4.95 1.60 0 1.65 -0.05 1.65 -2 l0 -2 -5.45 0 -5.45 0 0.15 1.65 c0.10 0.85 0.15 1.75 0.20 2 0.05 0.20 0.40 0.35 0.80 0.35 1.05 0 0.90 0.50 -0.70 2.50 l-1.45 1.75 -1.55 -1.75 c-1.80 -2.05 -1.85 -2.30 -0.55 -2.65 0.75 -0.20 1 -0.70 1 -2.05 l0 -1.80 -6.25 0 -6.25 0 0 2 c0 1.95 0.05 2 1.65 2 1.45 0 1.95 0.40 4.50 3.75 1.55 2.10 2.85 3.90 2.85 4 0 0.35 -2.70 4.25 -4.70 6.90 -1.15 1.50 -1.75 1.85 -3.10 1.85 -1.60 0 -1.70 0.10 -1.70 1.75 l0 1.75 5.75 0 5.75 0 0 -1.75z m38.35 -3.85 l0.15 -5.40 -2.20 0 -2.25 0 -0.15 3.65 -0.15 3.60 -3.75 0 -3.75 0 -0.15 -8.10 -0.10 -8.15 2 0 2 0 0 -2 0 -2 -6.80 0 -6.75 0 0.15 1.90 c0.15 1.70 0.30 1.85 1.80 2 l1.60 0.15 0 8.20 0 8.20 -1.60 0.15 c-1.45 0.15 -1.65 0.35 -1.80 1.80 l-0.15 1.60 10.90 -0.10 10.85 -0.15 0.15 -5.35z"/>
  <path d="M13 53.80 c0 -0.15 0.60 -1.20 1.40 -2.40 0.75 -1.20 1.60 -2.60 1.95 -3.15 0.30 -0.55 2.75 -4.55 5.40 -8.90 l4.85 -7.95 -1.30 -1.95 c-0.70 -1.05 -1.30 -2.05 -1.30 -2.15 0 -0.25 -3.60 -6.05 -4.35 -7.05 -0.25 -0.30 -0.95 -1.50 -1.60 -2.75 -0.70 -1.25 -1.35 -2.35 -1.50 -2.50 -0.20 -0.15 -0.90 -1.30 -1.55 -2.60 -0.70 -1.35 -1.40 -2.40 -1.60 -2.40 -0.25 0 -0.40 -0.20 -0.40 -0.50 0 -0.80 10.80 -0.65 11.20 0.15 0.15 0.30 0.90 1.65 1.65 2.90 0.80 1.25 2.35 3.90 3.55 5.85 1.20 2 2.35 3.60 2.60 3.60 0.25 0 0.75 -0.55 1.10 -1.25 0.35 -0.70 2.10 -3.60 3.85 -6.50 l3.25 -5.25 5.40 0 c2.95 0 5.40 0.10 5.40 0.20 0 0.15 -0.60 1.20 -1.35 2.40 -0.80 1.20 -1.65 2.60 -2 3.15 -0.35 0.55 -2.75 4.55 -5.40 8.90 l-4.85 7.95 1.30 1.95 c0.70 1.05 1.30 2.05 1.30 2.25 0 0.15 0.40 0.90 0.95 1.60 0.50 0.75 1.45 2.25 2.10 3.40 3.50 6 7.20 11.95 7.55 12.10 0.20 0.10 0.40 0.40 0.40 0.65 0 0.25 -2.45 0.45 -5.40 0.45 l-5.40 0 -1.70 -2.85 c-0.95 -1.60 -1.90 -2.95 -2.10 -3.05 -0.25 -0.10 -0.40 -0.40 -0.40 -0.60 0 -0.75 -3.55 -6.50 -4 -6.50 -0.25 0 -0.75 0.55 -1.10 1.25 -0.35 0.65 -2.10 3.60 -3.90 6.50 l-3.20 5.25 -5.40 0 c-2.95 0 -5.40 -0.10 -5.40 -0.20z"/>
 </g>
 <g fill="#dedbdb">
  <path d="M122.25 84.80 l0 -49.05 -6.75 -0.25 c-5.15 -0.20 -7.15 -0.45 -8.35 -1.15 -1.75 -0.90 -2.90 -2.55 -2.40 -3.35 0.15 -0.30 0.05 -0.50 -0.20 -0.50 -0.35 0 -0.55 -2.35 -0.55 -6.85 l0 -6.85 -3.75 -3.75 c-2.05 -2.05 -3.75 -3.90 -3.75 -4.15 0 -0.20 1.75 -0.40 3.85 -0.40 l3.90 0 13.35 13.35 13.40 13.40 0 49.40 0 49.40 -4.35 -0.10 -4.40 -0.10 0 -49.05z m-6.25 -61.05 l-9.75 -9.75 -0.15 7.35 c-0.15 7.45 0.20 9.45 1.80 10.75 0.50 0.45 3.25 0.75 8.30 0.95 4.15 0.15 8 0.30 8.55 0.35 0.60 0.05 -2.60 -3.50 -8.75 -9.65z"/>
  <path d="M13 104.50 l0 -21.50 19.90 -0.10 19.85 -0.15 0.25 -20 0.25 -20 31.65 -0.15 31.60 -0.10 0 41.75 0 41.75 -51.75 0 -51.75 0 0 -21.50z m19.75 10 l0 -8.25 -8.35 -0.15 -8.40 -0.10 0 8.50 0 8.50 8.40 -0.10 8.35 -0.15 0 -8.25z m20 0 l0 -8.25 -8.25 0 -8.25 0 -0.15 7.75 c-0.05 4.25 0 8 0.15 8.35 0.15 0.55 2 0.65 8.35 0.55 l8.15 -0.15 0 -8.25z m20.25 0 l0 -8.50 -8.35 0.10 -8.40 0.15 -0.15 7.75 c-0.05 4.25 0 8 0.10 8.35 0.20 0.50 2.25 0.65 8.55 0.65 l8.25 0 0 -8.50z m20.25 0 l0 -8.25 -8.50 0 -8.50 0 -0.15 7.75 c-0.05 4.25 0 8 0.15 8.35 0.15 0.55 2.05 0.65 8.60 0.55 l8.40 -0.15 0 -8.25z m20 0 l0 -8.25 -8.25 0 -8.25 0 -0.15 7.75 c-0.05 4.25 0 8 0.15 8.35 0.15 0.55 2 0.65 8.35 0.55 l8.15 -0.15 0 -8.25z m-80.50 -20 l0 -8.25 -8.35 -0.15 -8.40 -0.10 0 8.15 c0 4.50 0.15 8.35 0.35 8.55 0.20 0.15 3.95 0.25 8.35 0.20 l8.05 -0.15 0 -8.25z m20.15 -0.10 l0.10 -8.40 -8.50 0 -8.50 0 0 8.15 c0 4.50 0.15 8.35 0.35 8.55 0.20 0.15 3.95 0.25 8.35 0.20 l8.05 -0.15 0.15 -8.35z m20 -0.05 l0.10 -8.35 -8.35 0.10 -8.40 0.15 -0.15 7.75 c-0.05 4.25 0 8 0.15 8.35 0.15 0.55 2 0.65 8.35 0.55 l8.15 -0.15 0.15 -8.40z m20.05 7.95 c0.40 -0.45 0.55 -3.15 0.45 -8.35 l-0.15 -7.70 -8.50 0 -8.50 0 -0.15 7.70 c-0.10 5.20 0.05 7.90 0.45 8.35 0.45 0.55 2.30 0.70 8.20 0.70 5.90 0 7.75 -0.15 8.20 -0.70z m20.45 -7.90 l0.10 -8.40 -8.50 0 -8.50 0 0 8.15 c0 4.50 0.15 8.35 0.35 8.55 0.20 0.15 3.95 0.25 8.35 0.20 l8.05 -0.15 0.15 -8.35z m-20.50 -12 c0.40 -0.40 0.60 -3 0.60 -8.45 0 -6.70 -0.10 -7.90 -0.80 -8.15 -1.55 -0.60 -15.45 -0.35 -16.10 0.30 -0.40 0.40 -0.60 2.95 -0.60 8.15 0 5.20 0.20 7.75 0.60 8.15 0.40 0.40 2.95 0.60 8.15 0.60 5.20 0 7.75 -0.20 8.15 -0.60z m20.35 -8.15 l0 -8.50 -8.25 0 -8.25 0 -0.15 8 c-0.05 4.35 0 8.25 0.15 8.60 0.15 0.55 2 0.65 8.35 0.55 l8.15 -0.15 0 -8.50z m-39.85 0.30 c0.10 -5.20 -0.05 -7.90 -0.45 -8.35 -0.75 -0.95 -15.45 -1 -16.35 -0.10 -0.65 0.65 -0.90 15.45 -0.25 16.10 0.20 0.15 4.05 0.25 8.60 0.20 l8.30 -0.15 0.15 -7.70z m-0.15 -20.55 l0 -8.25 -8.50 0 -8.50 0 -0.15 7.75 c-0.05 4.25 0 8 0.15 8.35 0.15 0.55 2.05 0.65 8.60 0.55 l8.40 -0.15 0 -8.25z m20 0 l0 -8.25 -8.50 0 -8.50 0 -0.15 7.75 c-0.05 4.25 0 8 0.15 8.35 0.15 0.55 2.05 0.65 8.60 0.55 l8.40 -0.15 0 -8.25z m20 0 l0 -8.25 -8.25 0 -8.25 0 -0.15 7.75 c-0.05 4.25 0 8 0.15 8.35 0.15 0.55 2 0.65 8.35 0.55 l8.15 -0.15 0 -8.25z"/>
 </g>
 <g fill="#c6c6c6">
  <path d="M109 35.15 c0 -0.25 -0.70 -0.70 -1.50 -1 -2.55 -0.95 -2.95 -2.70 -3.05 -14.05 -0.05 -5.55 0 -10.20 0.10 -10.35 0.15 -0.10 5.95 5.55 12.95 12.55 l12.75 12.75 -9.85 -0.35 c-7.65 -0.25 -10.05 -0.20 -10.65 0.30 -0.40 0.35 -0.75 0.40 -0.75 0.15z"/>
 </g>
</svg>