<svg width="14" height="14" viewBox="0 0 14 14" fill="none" xmlns="http://www.w3.org/2000/svg">
<g id="Group">
<path id="Vector" d="M9.9165 1.75016H12.2498C12.4045 1.75016 12.5529 1.81162 12.6623 1.92102C12.7717 2.03041 12.8332 2.17879 12.8332 2.3335V11.6668C12.8332 11.8215 12.7717 11.9699 12.6623 12.0793C12.5529 12.1887 12.4045 12.2502 12.2498 12.2502H1.74984C1.59513 12.2502 1.44675 12.1887 1.33736 12.0793C1.22796 11.9699 1.1665 11.8215 1.1665 11.6668V2.3335C1.1665 2.17879 1.22796 2.03041 1.33736 1.92102C1.44675 1.81162 1.59513 1.75016 1.74984 1.75016H4.08317V0.583496H5.24984V1.75016H8.74984V0.583496H9.9165V1.75016ZM8.74984 2.91683H5.24984V4.0835H4.08317V2.91683H2.33317V5.25016H11.6665V2.91683H9.9165V4.0835H8.74984V2.91683ZM11.6665 6.41683H2.33317V11.0835H11.6665V6.41683ZM3.49984 8.16683H4.6665V9.3335H3.49984V8.16683ZM5.83317 8.16683H10.4998V9.3335H5.83317V8.16683Z" fill="#7E9BBC"/>
</g>
</svg>
