<svg width="16" height="16" viewBox="0 0 16 16" fill="none" xmlns="http://www.w3.org/2000/svg">
<g id="Group">
<path id="Vector" d="M11.334 2.00033H14.0007C14.1775 2.00033 14.347 2.07056 14.4721 2.19559C14.5971 2.32061 14.6673 2.49018 14.6673 2.66699V13.3337C14.6673 13.5105 14.5971 13.68 14.4721 13.8051C14.347 13.9301 14.1775 14.0003 14.0007 14.0003H2.00065C1.82384 14.0003 1.65427 13.9301 1.52925 13.8051C1.40422 13.68 1.33398 13.5105 1.33398 13.3337V2.66699C1.33398 2.49018 1.40422 2.32061 1.52925 2.19559C1.65427 2.07056 1.82384 2.00033 2.00065 2.00033H4.66732V0.666992H6.00065V2.00033H10.0007V0.666992H11.334V2.00033ZM13.334 6.00033V3.33366H11.334V4.66699H10.0007V3.33366H6.00065V4.66699H4.66732V3.33366H2.66732V6.00033H13.334ZM13.334 7.33366H2.66732V12.667H13.334V7.33366ZM4.00065 8.66699H7.33398V11.3337H4.00065V8.66699Z" fill="#7E9BBC"/>
</g>
</svg>
