<svg width="21" height="20" viewBox="0 0 21 20" fill="none" xmlns="http://www.w3.org/2000/svg">
<g clip-path="url(#clip0_6328_107434)">
<path d="M11.3333 9.99935H13.8333L10.5 13.3327L7.16667 9.99935H9.66667V6.66602H11.3333V9.99935ZM13 3.33268H4.66667V16.666H16.3333V6.66602H13V3.33268ZM3 2.49268C3 2.03602 3.3725 1.66602 3.8325 1.66602H13.8333L18 5.83268V17.4935C18.0008 17.603 17.98 17.7115 17.9388 17.8129C17.8976 17.9143 17.8369 18.0066 17.7601 18.0845C17.6832 18.1624 17.5918 18.2244 17.491 18.267C17.3902 18.3096 17.2819 18.3319 17.1725 18.3327H3.8275C3.60865 18.3312 3.39918 18.2436 3.24435 18.0889C3.08951 17.9342 3.00175 17.7249 3 17.506V2.49268Z" fill="#50739B"/>
</g>
<defs>
<clipPath id="clip0_6328_107434">
<rect width="20" height="20" fill="white" transform="translate(0.5)"/>
</clipPath>
</defs>
</svg>
