<svg width="57" height="57" viewBox="0 0 57 57" fill="none" xmlns="http://www.w3.org/2000/svg">
<path d="M33.25 4.75H14.25C12.9902 4.75 11.782 5.25044 10.8912 6.14124C10.0004 7.03204 9.5 8.24022 9.5 9.5V47.5C9.5 48.7598 10.0004 49.968 10.8912 50.8588C11.782 51.7496 12.9902 52.25 14.25 52.25H42.75C44.0098 52.25 45.218 51.7496 46.1088 50.8588C46.9996 49.968 47.5 48.7598 47.5 47.5V19L33.25 4.75Z" stroke="#6582A4" stroke-opacity="0.79" stroke-width="2" stroke-linecap="round" stroke-linejoin="round"/>
<path d="M33.25 4.75V19H47.5" stroke="#6582A4" stroke-opacity="0.79" stroke-width="2" stroke-linecap="round" stroke-linejoin="round"/>
<path d="M38 30.875H19" stroke="#6582A4" stroke-opacity="0.79" stroke-width="2" stroke-linecap="round" stroke-linejoin="round"/>
<path d="M38 40.375H19" stroke="#6582A4" stroke-opacity="0.79" stroke-width="2" stroke-linecap="round" stroke-linejoin="round"/>
<path d="M23.75 21.375H21.375H19" stroke="#6582A4" stroke-opacity="0.79" stroke-width="2" stroke-linecap="round" stroke-linejoin="round"/>
</svg>
