<svg width="100" height="100" viewBox="0 0 100 100" fill="none" xmlns="http://www.w3.org/2000/svg">
<g id="icon">
<path id="&#230;&#164;&#173;&#229;&#156;&#134;&#229;&#189;&#162;&#229;&#164;&#135;&#228;&#187;&#189;-2" fill-rule="evenodd" clip-rule="evenodd" d="M50 100C77.6142 100 100 77.6142 100 50C100 22.3858 77.6142 0 50 0C37.6109 0 32.9015 14.8598 24.1667 22.3223C13.4323 31.493 0 34.7749 0 50C0 77.6142 22.3858 100 50 100Z" fill="#EEF0F6"/>
<g id="&#231;&#159;&#169;&#229;&#189;&#162;&#229;&#164;&#135;&#228;&#187;&#189;-46" filter="url(#filter0_f_4735_54451)">
<path d="M76.6663 33.334H33.333C31.9523 33.334 30.833 34.2911 30.833 35.4717V80.363C30.833 81.5436 31.9523 82.5007 33.333 82.5007H76.6663C78.0471 82.5007 79.1663 81.5436 79.1663 80.363V35.4717C79.1663 34.2911 78.0471 33.334 76.6663 33.334Z" fill="white"/>
<path d="M76.6663 33.334H33.333C31.9523 33.334 30.833 34.2911 30.833 35.4717V80.363C30.833 81.5436 31.9523 82.5007 33.333 82.5007H76.6663C78.0471 82.5007 79.1663 81.5436 79.1663 80.363V35.4717C79.1663 34.2911 78.0471 33.334 76.6663 33.334Z" fill="#E1E5EF"/>
</g>
<path id="Rectangle 584" d="M29.167 33.3327C29.167 29.6508 32.1518 26.666 35.8337 26.666H67.5003C71.1822 26.666 74.167 29.6508 74.167 33.3327V69.166C74.167 72.8479 71.1822 75.8327 67.5003 75.8327H35.8337C32.1518 75.8327 29.167 72.8479 29.167 69.166V33.3327Z" fill="white"/>
<path id="&#232;&#183;&#175;&#229;&#190;&#132;-5 (Stroke)" fill-rule="evenodd" clip-rule="evenodd" d="M65.5511 67.2237C66.4111 66.4593 66.4885 65.1425 65.7241 64.2826L59.0575 56.7826C58.293 55.9226 56.9762 55.8451 56.1163 56.6095C55.2563 57.374 55.1788 58.6908 55.9432 59.5507L62.6099 67.0507C63.3743 67.9107 64.6911 67.9882 65.5511 67.2237Z" fill="#676C93"/>
<path id="Ellipse 144 (Stroke)" fill-rule="evenodd" clip-rule="evenodd" d="M49.9997 39.4167C45.1672 39.4167 41.2497 43.3342 41.2497 48.1667C41.2497 52.9992 45.1672 56.9167 49.9997 56.9167C54.8322 56.9167 58.7497 52.9992 58.7497 48.1667C58.7497 43.3342 54.8322 39.4167 49.9997 39.4167ZM37.083 48.1667C37.083 41.033 42.866 35.25 49.9997 35.25C57.1334 35.25 62.9163 41.033 62.9163 48.1667C62.9163 55.3003 57.1334 61.0833 49.9997 61.0833C42.866 61.0833 37.083 55.3003 37.083 48.1667Z" fill="#676C93"/>
</g>
<defs>
<filter id="filter0_f_4735_54451" x="14.333" y="16.834" width="81.333" height="82.166" filterUnits="userSpaceOnUse" color-interpolation-filters="sRGB">
<feFlood flood-opacity="0" result="BackgroundImageFix"/>
<feBlend mode="normal" in="SourceGraphic" in2="BackgroundImageFix" result="shape"/>
<feGaussianBlur stdDeviation="8.25" result="effect1_foregroundBlur_4735_54451"/>
</filter>
</defs>
</svg>
